<?xml version="1.0" encoding="UTF-8" standalone="no" ?>
<!DOCTYPE svg PUBLIC "-//W3C//DTD SVG 1.1//EN" "http://www.w3.org/Graphics/SVG/1.1/DTD/svg11.dtd">
<svg xmlns="http://www.w3.org/2000/svg" xmlns:xlink="http://www.w3.org/1999/xlink" version="1.1" width="200" height="280" viewBox="0 0 200 280" xml:space="preserve">
<desc>Created with Fabric.js 4.6.0</desc>
<defs>
</defs>
<g transform="matrix(1 0 0 1 100 140)" id="dSKe0PSBiAMa3oPA_j9Sj"  >
<path style="stroke: rgb(230,126,5); stroke-width: 0; stroke-dasharray: none; stroke-linecap: butt; stroke-dashoffset: 0; stroke-linejoin: miter; stroke-miterlimit: 4; fill: rgb(5,55,84); fill-rule: nonzero; opacity: 1;" vector-effect="non-scaling-stroke"  transform=" translate(0, 0)" d="M -100 -132.1536 C -100 -136.48705 -96.48705 -140 -92.1536 -140 L 92.03902000000001 -140 L 92.03902000000001 -140 C 96.43575000000001 -140 100.00000000000001 -136.43575 100.00000000000001 -132.03902 L 100.00000000000001 131.5777 L 100.00000000000001 131.5777 C 100.00000000000001 136.22921 96.22921000000001 140 91.57770000000002 140 L -92.02747999999997 140 L -92.02747999999997 140 C -96.43057999999996 140 -99.99999999999997 136.43058 -99.99999999999997 132.02748 z" stroke-linecap="round" />
</g>
<g transform="matrix(2.34 0 0 2.47 348.71 -1019.49)" id="xOuV6riSb8VumOq59IFdm"  >
<path style="stroke: none; stroke-width: 1; stroke-dasharray: none; stroke-linecap: butt; stroke-dashoffset: 0; stroke-linejoin: miter; stroke-miterlimit: 4; fill: rgb(179,181,179); fill-rule: nonzero; opacity: 1;" vector-effect="non-scaling-stroke"  transform=" translate(-39.92, -39.95)" d="M 72.4 0 L 7.6 0 C 6.9 0 6.3 0.6 6.3 1.2 L 6.3 78.7 C 6.3 79.4 6.8999999999999995 79.9 7.5 79.9 L 72.3 79.9 C 73 79.9 73.5 79.30000000000001 73.5 78.7 L 73.5 1.2 C 73.7 0.6 73.1 0 72.4 0 z" stroke-linecap="round" />
</g>
<g transform="matrix(2.34 0 0 2.47 348.9 -1027.52)" id="GBbzns_Ls9sgOyL4uWku8"  >
<path style="stroke: none; stroke-width: 1; stroke-dasharray: none; stroke-linecap: butt; stroke-dashoffset: 0; stroke-linejoin: miter; stroke-miterlimit: 4; fill: rgb(255,255,255); fill-rule: nonzero; opacity: 1;" vector-effect="non-scaling-stroke"  transform=" translate(-40, -36.7)" d="M 67.3 62.7 L 67.3 62.7 C 67.3 63.400000000000006 66.7 63.900000000000006 66.1 63.900000000000006 L 62.89999999999999 63.900000000000006 L 61.79999999999999 58.400000000000006 C 61.49999999999999 56.7 60.29999999999999 55.300000000000004 58.79999999999999 54.60000000000001 L 50.499999999999986 50.80000000000001 C 50.499999999999986 50.80000000000001 46.29999999999998 49.000000000000014 46.29999999999998 47.10000000000001 C 46.29999999999998 45.2 46.29999999999998 42.80000000000001 46.29999999999998 42.80000000000001 C 47.499999999999986 41.10000000000001 48.19999999999998 39.40000000000001 48.399999999999984 38.90000000000001 C 48.899999999999984 38.600000000000016 50.59999999999999 37.20000000000001 50.69999999999998 35.000000000000014 C 50.79999999999998 33.000000000000014 50.09999999999998 32.500000000000014 49.49999999999998 32.500000000000014 C 49.59999999999998 31.100000000000016 50.19999999999998 21.000000000000014 39.99999999999998 20.800000000000015 C 29.79999999999998 21.000000000000014 30.399999999999977 31.100000000000016 30.49999999999998 32.500000000000014 C 29.899999999999977 32.500000000000014 29.199999999999978 33.000000000000014 29.29999999999998 35.000000000000014 C 29.39999999999998 37.30000000000001 31.09999999999998 38.600000000000016 31.59999999999998 38.90000000000001 C 31.79999999999998 39.40000000000001 32.59999999999998 41.100000000000016 33.69999999999998 42.80000000000001 C 33.69999999999998 42.80000000000001 33.69999999999998 45.20000000000001 33.69999999999998 47.10000000000001 C 33.69999999999998 49.00000000000001 29.499999999999982 50.80000000000001 29.499999999999982 50.80000000000001 L 21 54.6 C 19.4 55.300000000000004 18.3 56.7 18 58.4 L 16.9 64 L 13.899999999999999 64 C 13.2 64 12.7 63.4 12.7 62.8 L 12.7 10.6 C 12.7 9.9 13.299999999999999 9.4 13.899999999999999 9.4 L 66 9.4 C 66.7 9.4 67.2 10 67.2 10.6 L 67.2 62.7 L 67.3 62.7 z" stroke-linecap="round" />
</g>
<g transform="matrix(2.34 0 0 2.47 198.71 -1129.49)" id="aTjNu-SBua74onzRPpzSD"  >
<path style="stroke: none; stroke-width: 1; stroke-dasharray: none; stroke-linecap: butt; stroke-dashoffset: 0; stroke-linejoin: miter; stroke-miterlimit: 4; fill: rgb(179,181,179); fill-rule: nonzero; opacity: 1;" vector-effect="non-scaling-stroke"  transform=" translate(-39.92, -39.95)" d="M 72.4 0 L 7.6 0 C 6.9 0 6.3 0.6 6.3 1.2 L 6.3 78.7 C 6.3 79.4 6.8999999999999995 79.9 7.5 79.9 L 72.3 79.9 C 73 79.9 73.5 79.30000000000001 73.5 78.7 L 73.5 1.2 C 73.7 0.6 73.1 0 72.4 0 z" stroke-linecap="round" />
</g>
<g transform="matrix(2.34 0 0 2.47 198.9 -1137.52)" id="gsDjX2CUqI16I10x2RdVI"  >
<path style="stroke: none; stroke-width: 1; stroke-dasharray: none; stroke-linecap: butt; stroke-dashoffset: 0; stroke-linejoin: miter; stroke-miterlimit: 4; fill: rgb(255,255,255); fill-rule: nonzero; opacity: 1;" vector-effect="non-scaling-stroke"  transform=" translate(-40, -36.7)" d="M 67.3 62.7 L 67.3 62.7 C 67.3 63.400000000000006 66.7 63.900000000000006 66.1 63.900000000000006 L 62.89999999999999 63.900000000000006 L 61.79999999999999 58.400000000000006 C 61.49999999999999 56.7 60.29999999999999 55.300000000000004 58.79999999999999 54.60000000000001 L 50.499999999999986 50.80000000000001 C 50.499999999999986 50.80000000000001 46.29999999999998 49.000000000000014 46.29999999999998 47.10000000000001 C 46.29999999999998 45.2 46.29999999999998 42.80000000000001 46.29999999999998 42.80000000000001 C 47.499999999999986 41.10000000000001 48.19999999999998 39.40000000000001 48.399999999999984 38.90000000000001 C 48.899999999999984 38.600000000000016 50.59999999999999 37.20000000000001 50.69999999999998 35.000000000000014 C 50.79999999999998 33.000000000000014 50.09999999999998 32.500000000000014 49.49999999999998 32.500000000000014 C 49.59999999999998 31.100000000000016 50.19999999999998 21.000000000000014 39.99999999999998 20.800000000000015 C 29.79999999999998 21.000000000000014 30.399999999999977 31.100000000000016 30.49999999999998 32.500000000000014 C 29.899999999999977 32.500000000000014 29.199999999999978 33.000000000000014 29.29999999999998 35.000000000000014 C 29.39999999999998 37.30000000000001 31.09999999999998 38.600000000000016 31.59999999999998 38.90000000000001 C 31.79999999999998 39.40000000000001 32.59999999999998 41.100000000000016 33.69999999999998 42.80000000000001 C 33.69999999999998 42.80000000000001 33.69999999999998 45.20000000000001 33.69999999999998 47.10000000000001 C 33.69999999999998 49.00000000000001 29.499999999999982 50.80000000000001 29.499999999999982 50.80000000000001 L 21 54.6 C 19.4 55.300000000000004 18.3 56.7 18 58.4 L 16.9 64 L 13.899999999999999 64 C 13.2 64 12.7 63.4 12.7 62.8 L 12.7 10.6 C 12.7 9.9 13.299999999999999 9.4 13.899999999999999 9.4 L 66 9.4 C 66.7 9.4 67.2 10 67.2 10.6 L 67.2 62.7 L 67.3 62.7 z" stroke-linecap="round" />
</g>
<g transform="matrix(0 0 0 0 249 127)" id="k93ZuS_c4S3SpBgJDPqa7"  >
<path style="stroke: none; stroke-width: 1; stroke-dasharray: none; stroke-linecap: butt; stroke-dashoffset: 0; stroke-linejoin: miter; stroke-miterlimit: 4; fill: rgb(78,160,202); fill-rule: nonzero; opacity: 1;" vector-effect="non-scaling-stroke"  transform=" translate(-77.45, -242.3)" d="M 77.453 242.301" stroke-linecap="round" />
</g>
<g transform="matrix(2.33 0 0 2.47 414.5 -1089.5)" id="yE5FAtE4CXfrIx11WaNiD"  >
<path style="stroke: none; stroke-width: 1; stroke-dasharray: none; stroke-linecap: butt; stroke-dashoffset: 0; stroke-linejoin: miter; stroke-miterlimit: 4; fill: rgb(179,181,179); fill-rule: nonzero; opacity: 1;" vector-effect="non-scaling-stroke"  transform=" translate(-39.92, -39.95)" d="M 72.4 0 L 7.6 0 C 6.9 0 6.3 0.6 6.3 1.2 L 6.3 78.7 C 6.3 79.4 6.8999999999999995 79.9 7.5 79.9 L 72.3 79.9 C 73 79.9 73.5 79.30000000000001 73.5 78.7 L 73.5 1.2 C 73.7 0.6 73.1 0 72.4 0 z" stroke-linecap="round" />
</g>
<g transform="matrix(2.34 0 0 2.47 415 -1097.5)" id="sSNhYL0JHm9nPq9ZaOiyw"  >
<path style="stroke: none; stroke-width: 1; stroke-dasharray: none; stroke-linecap: butt; stroke-dashoffset: 0; stroke-linejoin: miter; stroke-miterlimit: 4; fill: rgb(255,255,255); fill-rule: nonzero; opacity: 1;" vector-effect="non-scaling-stroke"  transform=" translate(-40, -36.7)" d="M 67.3 62.7 L 67.3 62.7 C 67.3 63.400000000000006 66.7 63.900000000000006 66.1 63.900000000000006 L 62.89999999999999 63.900000000000006 L 61.79999999999999 58.400000000000006 C 61.49999999999999 56.7 60.29999999999999 55.300000000000004 58.79999999999999 54.60000000000001 L 50.499999999999986 50.80000000000001 C 50.499999999999986 50.80000000000001 46.29999999999998 49.000000000000014 46.29999999999998 47.10000000000001 C 46.29999999999998 45.2 46.29999999999998 42.80000000000001 46.29999999999998 42.80000000000001 C 47.499999999999986 41.10000000000001 48.19999999999998 39.40000000000001 48.399999999999984 38.90000000000001 C 48.899999999999984 38.600000000000016 50.59999999999999 37.20000000000001 50.69999999999998 35.000000000000014 C 50.79999999999998 33.000000000000014 50.09999999999998 32.500000000000014 49.49999999999998 32.500000000000014 C 49.59999999999998 31.100000000000016 50.19999999999998 21.000000000000014 39.99999999999998 20.800000000000015 C 29.79999999999998 21.000000000000014 30.399999999999977 31.100000000000016 30.49999999999998 32.500000000000014 C 29.899999999999977 32.500000000000014 29.199999999999978 33.000000000000014 29.29999999999998 35.000000000000014 C 29.39999999999998 37.30000000000001 31.09999999999998 38.600000000000016 31.59999999999998 38.90000000000001 C 31.79999999999998 39.40000000000001 32.59999999999998 41.100000000000016 33.69999999999998 42.80000000000001 C 33.69999999999998 42.80000000000001 33.69999999999998 45.20000000000001 33.69999999999998 47.10000000000001 C 33.69999999999998 49.00000000000001 29.499999999999982 50.80000000000001 29.499999999999982 50.80000000000001 L 21 54.6 C 19.4 55.300000000000004 18.3 56.7 18 58.4 L 16.9 64 L 13.899999999999999 64 C 13.2 64 12.7 63.4 12.7 62.8 L 12.7 10.6 C 12.7 9.9 13.299999999999999 9.4 13.899999999999999 9.4 L 66 9.4 C 66.7 9.4 67.2 10 67.2 10.6 L 67.2 62.7 L 67.3 62.7 z" stroke-linecap="round" />
</g>
<g transform="matrix(2.33 0 0 2.47 408.5 -1109.5)" id="eJxm9vFMb9HIjPd-9HkgU"  >
<path style="stroke: none; stroke-width: 1; stroke-dasharray: none; stroke-linecap: butt; stroke-dashoffset: 0; stroke-linejoin: miter; stroke-miterlimit: 4; fill: rgb(179,181,179); fill-rule: nonzero; opacity: 1;" vector-effect="non-scaling-stroke"  transform=" translate(-39.92, -39.95)" d="M 72.4 0 L 7.6 0 C 6.9 0 6.3 0.6 6.3 1.2 L 6.3 78.7 C 6.3 79.4 6.8999999999999995 79.9 7.5 79.9 L 72.3 79.9 C 73 79.9 73.5 79.30000000000001 73.5 78.7 L 73.5 1.2 C 73.7 0.6 73.1 0 72.4 0 z" stroke-linecap="round" />
</g>
<g transform="matrix(2.34 0 0 2.47 409 -1117.5)" id="q3B1d_l4DcKWwES0inU_o"  >
<path style="stroke: none; stroke-width: 1; stroke-dasharray: none; stroke-linecap: butt; stroke-dashoffset: 0; stroke-linejoin: miter; stroke-miterlimit: 4; fill: rgb(255,255,255); fill-rule: nonzero; opacity: 1;" vector-effect="non-scaling-stroke"  transform=" translate(-40, -36.7)" d="M 67.3 62.7 L 67.3 62.7 C 67.3 63.400000000000006 66.7 63.900000000000006 66.1 63.900000000000006 L 62.89999999999999 63.900000000000006 L 61.79999999999999 58.400000000000006 C 61.49999999999999 56.7 60.29999999999999 55.300000000000004 58.79999999999999 54.60000000000001 L 50.499999999999986 50.80000000000001 C 50.499999999999986 50.80000000000001 46.29999999999998 49.000000000000014 46.29999999999998 47.10000000000001 C 46.29999999999998 45.2 46.29999999999998 42.80000000000001 46.29999999999998 42.80000000000001 C 47.499999999999986 41.10000000000001 48.19999999999998 39.40000000000001 48.399999999999984 38.90000000000001 C 48.899999999999984 38.600000000000016 50.59999999999999 37.20000000000001 50.69999999999998 35.000000000000014 C 50.79999999999998 33.000000000000014 50.09999999999998 32.500000000000014 49.49999999999998 32.500000000000014 C 49.59999999999998 31.100000000000016 50.19999999999998 21.000000000000014 39.99999999999998 20.800000000000015 C 29.79999999999998 21.000000000000014 30.399999999999977 31.100000000000016 30.49999999999998 32.500000000000014 C 29.899999999999977 32.500000000000014 29.199999999999978 33.000000000000014 29.29999999999998 35.000000000000014 C 29.39999999999998 37.30000000000001 31.09999999999998 38.600000000000016 31.59999999999998 38.90000000000001 C 31.79999999999998 39.40000000000001 32.59999999999998 41.100000000000016 33.69999999999998 42.80000000000001 C 33.69999999999998 42.80000000000001 33.69999999999998 45.20000000000001 33.69999999999998 47.10000000000001 C 33.69999999999998 49.00000000000001 29.499999999999982 50.80000000000001 29.499999999999982 50.80000000000001 L 21 54.6 C 19.4 55.300000000000004 18.3 56.7 18 58.4 L 16.9 64 L 13.899999999999999 64 C 13.2 64 12.7 63.4 12.7 62.8 L 12.7 10.6 C 12.7 9.9 13.299999999999999 9.4 13.899999999999999 9.4 L 66 9.4 C 66.7 9.4 67.2 10 67.2 10.6 L 67.2 62.7 L 67.3 62.7 z" stroke-linecap="round" />
</g>
<g transform="matrix(2.33 0 0 2.47 418.5 -1109.5)" id="dzlcdmzT9zUpW9UtDHC5-"  >
<path style="stroke: none; stroke-width: 1; stroke-dasharray: none; stroke-linecap: butt; stroke-dashoffset: 0; stroke-linejoin: miter; stroke-miterlimit: 4; fill: rgb(179,181,179); fill-rule: nonzero; opacity: 1;" vector-effect="non-scaling-stroke"  transform=" translate(-39.92, -39.95)" d="M 72.4 0 L 7.6 0 C 6.9 0 6.3 0.6 6.3 1.2 L 6.3 78.7 C 6.3 79.4 6.8999999999999995 79.9 7.5 79.9 L 72.3 79.9 C 73 79.9 73.5 79.30000000000001 73.5 78.7 L 73.5 1.2 C 73.7 0.6 73.1 0 72.4 0 z" stroke-linecap="round" />
</g>
<g transform="matrix(2.34 0 0 2.47 419 -1117.5)" id="c59tJfDK2yof_2chMUGmY"  >
<path style="stroke: none; stroke-width: 1; stroke-dasharray: none; stroke-linecap: butt; stroke-dashoffset: 0; stroke-linejoin: miter; stroke-miterlimit: 4; fill: rgb(255,255,255); fill-rule: nonzero; opacity: 1;" vector-effect="non-scaling-stroke"  transform=" translate(-40, -36.7)" d="M 67.3 62.7 L 67.3 62.7 C 67.3 63.400000000000006 66.7 63.900000000000006 66.1 63.900000000000006 L 62.89999999999999 63.900000000000006 L 61.79999999999999 58.400000000000006 C 61.49999999999999 56.7 60.29999999999999 55.300000000000004 58.79999999999999 54.60000000000001 L 50.499999999999986 50.80000000000001 C 50.499999999999986 50.80000000000001 46.29999999999998 49.000000000000014 46.29999999999998 47.10000000000001 C 46.29999999999998 45.2 46.29999999999998 42.80000000000001 46.29999999999998 42.80000000000001 C 47.499999999999986 41.10000000000001 48.19999999999998 39.40000000000001 48.399999999999984 38.90000000000001 C 48.899999999999984 38.600000000000016 50.59999999999999 37.20000000000001 50.69999999999998 35.000000000000014 C 50.79999999999998 33.000000000000014 50.09999999999998 32.500000000000014 49.49999999999998 32.500000000000014 C 49.59999999999998 31.100000000000016 50.19999999999998 21.000000000000014 39.99999999999998 20.800000000000015 C 29.79999999999998 21.000000000000014 30.399999999999977 31.100000000000016 30.49999999999998 32.500000000000014 C 29.899999999999977 32.500000000000014 29.199999999999978 33.000000000000014 29.29999999999998 35.000000000000014 C 29.39999999999998 37.30000000000001 31.09999999999998 38.600000000000016 31.59999999999998 38.90000000000001 C 31.79999999999998 39.40000000000001 32.59999999999998 41.100000000000016 33.69999999999998 42.80000000000001 C 33.69999999999998 42.80000000000001 33.69999999999998 45.20000000000001 33.69999999999998 47.10000000000001 C 33.69999999999998 49.00000000000001 29.499999999999982 50.80000000000001 29.499999999999982 50.80000000000001 L 21 54.6 C 19.4 55.300000000000004 18.3 56.7 18 58.4 L 16.9 64 L 13.899999999999999 64 C 13.2 64 12.7 63.4 12.7 62.8 L 12.7 10.6 C 12.7 9.9 13.299999999999999 9.4 13.899999999999999 9.4 L 66 9.4 C 66.7 9.4 67.2 10 67.2 10.6 L 67.2 62.7 L 67.3 62.7 z" stroke-linecap="round" />
</g>
<g transform="matrix(2.33 0 0 2.47 438.5 -1106.5)" id="UnAKGru86ifeS0LpP7htM"  >
<path style="stroke: none; stroke-width: 1; stroke-dasharray: none; stroke-linecap: butt; stroke-dashoffset: 0; stroke-linejoin: miter; stroke-miterlimit: 4; fill: rgb(179,181,179); fill-rule: nonzero; opacity: 1;" vector-effect="non-scaling-stroke"  transform=" translate(-39.92, -39.95)" d="M 72.4 0 L 7.6 0 C 6.9 0 6.3 0.6 6.3 1.2 L 6.3 78.7 C 6.3 79.4 6.8999999999999995 79.9 7.5 79.9 L 72.3 79.9 C 73 79.9 73.5 79.30000000000001 73.5 78.7 L 73.5 1.2 C 73.7 0.6 73.1 0 72.4 0 z" stroke-linecap="round" />
</g>
<g transform="matrix(2.34 0 0 2.47 439 -1114.5)" id="HZIYkDW8CT9fa36aM0rcm"  >
<path style="stroke: none; stroke-width: 1; stroke-dasharray: none; stroke-linecap: butt; stroke-dashoffset: 0; stroke-linejoin: miter; stroke-miterlimit: 4; fill: rgb(255,255,255); fill-rule: nonzero; opacity: 1;" vector-effect="non-scaling-stroke"  transform=" translate(-40, -36.7)" d="M 67.3 62.7 L 67.3 62.7 C 67.3 63.400000000000006 66.7 63.900000000000006 66.1 63.900000000000006 L 62.89999999999999 63.900000000000006 L 61.79999999999999 58.400000000000006 C 61.49999999999999 56.7 60.29999999999999 55.300000000000004 58.79999999999999 54.60000000000001 L 50.499999999999986 50.80000000000001 C 50.499999999999986 50.80000000000001 46.29999999999998 49.000000000000014 46.29999999999998 47.10000000000001 C 46.29999999999998 45.2 46.29999999999998 42.80000000000001 46.29999999999998 42.80000000000001 C 47.499999999999986 41.10000000000001 48.19999999999998 39.40000000000001 48.399999999999984 38.90000000000001 C 48.899999999999984 38.600000000000016 50.59999999999999 37.20000000000001 50.69999999999998 35.000000000000014 C 50.79999999999998 33.000000000000014 50.09999999999998 32.500000000000014 49.49999999999998 32.500000000000014 C 49.59999999999998 31.100000000000016 50.19999999999998 21.000000000000014 39.99999999999998 20.800000000000015 C 29.79999999999998 21.000000000000014 30.399999999999977 31.100000000000016 30.49999999999998 32.500000000000014 C 29.899999999999977 32.500000000000014 29.199999999999978 33.000000000000014 29.29999999999998 35.000000000000014 C 29.39999999999998 37.30000000000001 31.09999999999998 38.600000000000016 31.59999999999998 38.90000000000001 C 31.79999999999998 39.40000000000001 32.59999999999998 41.100000000000016 33.69999999999998 42.80000000000001 C 33.69999999999998 42.80000000000001 33.69999999999998 45.20000000000001 33.69999999999998 47.10000000000001 C 33.69999999999998 49.00000000000001 29.499999999999982 50.80000000000001 29.499999999999982 50.80000000000001 L 21 54.6 C 19.4 55.300000000000004 18.3 56.7 18 58.4 L 16.9 64 L 13.899999999999999 64 C 13.2 64 12.7 63.4 12.7 62.8 L 12.7 10.6 C 12.7 9.9 13.299999999999999 9.4 13.899999999999999 9.4 L 66 9.4 C 66.7 9.4 67.2 10 67.2 10.6 L 67.2 62.7 L 67.3 62.7 z" stroke-linecap="round" />
</g>
<g transform="matrix(2.33 0 0 2.47 417.5 -1089.5)" id="EqYEaXWlHKAMJZJ5-S1LY"  >
<path style="stroke: none; stroke-width: 1; stroke-dasharray: none; stroke-linecap: butt; stroke-dashoffset: 0; stroke-linejoin: miter; stroke-miterlimit: 4; fill: rgb(179,181,179); fill-rule: nonzero; opacity: 1;" vector-effect="non-scaling-stroke"  transform=" translate(-39.92, -39.95)" d="M 72.4 0 L 7.6 0 C 6.9 0 6.3 0.6 6.3 1.2 L 6.3 78.7 C 6.3 79.4 6.8999999999999995 79.9 7.5 79.9 L 72.3 79.9 C 73 79.9 73.5 79.30000000000001 73.5 78.7 L 73.5 1.2 C 73.7 0.6 73.1 0 72.4 0 z" stroke-linecap="round" />
</g>
<g transform="matrix(2.34 0 0 2.47 419 -1097.5)" id="xISUG6SFCi3KpksWRc_CL"  >
<path style="stroke: none; stroke-width: 1; stroke-dasharray: none; stroke-linecap: butt; stroke-dashoffset: 0; stroke-linejoin: miter; stroke-miterlimit: 4; fill: rgb(255,255,255); fill-rule: nonzero; opacity: 1;" vector-effect="non-scaling-stroke"  transform=" translate(-40, -36.7)" d="M 67.3 62.7 L 67.3 62.7 C 67.3 63.400000000000006 66.7 63.900000000000006 66.1 63.900000000000006 L 62.89999999999999 63.900000000000006 L 61.79999999999999 58.400000000000006 C 61.49999999999999 56.7 60.29999999999999 55.300000000000004 58.79999999999999 54.60000000000001 L 50.499999999999986 50.80000000000001 C 50.499999999999986 50.80000000000001 46.29999999999998 49.000000000000014 46.29999999999998 47.10000000000001 C 46.29999999999998 45.2 46.29999999999998 42.80000000000001 46.29999999999998 42.80000000000001 C 47.499999999999986 41.10000000000001 48.19999999999998 39.40000000000001 48.399999999999984 38.90000000000001 C 48.899999999999984 38.600000000000016 50.59999999999999 37.20000000000001 50.69999999999998 35.000000000000014 C 50.79999999999998 33.000000000000014 50.09999999999998 32.500000000000014 49.49999999999998 32.500000000000014 C 49.59999999999998 31.100000000000016 50.19999999999998 21.000000000000014 39.99999999999998 20.800000000000015 C 29.79999999999998 21.000000000000014 30.399999999999977 31.100000000000016 30.49999999999998 32.500000000000014 C 29.899999999999977 32.500000000000014 29.199999999999978 33.000000000000014 29.29999999999998 35.000000000000014 C 29.39999999999998 37.30000000000001 31.09999999999998 38.600000000000016 31.59999999999998 38.90000000000001 C 31.79999999999998 39.40000000000001 32.59999999999998 41.100000000000016 33.69999999999998 42.80000000000001 C 33.69999999999998 42.80000000000001 33.69999999999998 45.20000000000001 33.69999999999998 47.10000000000001 C 33.69999999999998 49.00000000000001 29.499999999999982 50.80000000000001 29.499999999999982 50.80000000000001 L 21 54.6 C 19.4 55.300000000000004 18.3 56.7 18 58.4 L 16.9 64 L 13.899999999999999 64 C 13.2 64 12.7 63.4 12.7 62.8 L 12.7 10.6 C 12.7 9.9 13.299999999999999 9.4 13.899999999999999 9.4 L 66 9.4 C 66.7 9.4 67.2 10 67.2 10.6 L 67.2 62.7 L 67.3 62.7 z" stroke-linecap="round" />
</g>
<g transform="matrix(2.33 0 0 2.47 434.5 -1097.5)" id="0I5CYmK088JO0u9oJuM87"  >
<path style="stroke: none; stroke-width: 1; stroke-dasharray: none; stroke-linecap: butt; stroke-dashoffset: 0; stroke-linejoin: miter; stroke-miterlimit: 4; fill: rgb(179,181,179); fill-rule: nonzero; opacity: 1;" vector-effect="non-scaling-stroke"  transform=" translate(-39.92, -39.95)" d="M 72.4 0 L 7.6 0 C 6.9 0 6.3 0.6 6.3 1.2 L 6.3 78.7 C 6.3 79.4 6.8999999999999995 79.9 7.5 79.9 L 72.3 79.9 C 73 79.9 73.5 79.30000000000001 73.5 78.7 L 73.5 1.2 C 73.7 0.6 73.1 0 72.4 0 z" stroke-linecap="round" />
</g>
<g transform="matrix(2.34 0 0 2.47 435 -1105.5)" id="2QyGOx6W2_5HN6H9zB9-t"  >
<path style="stroke: none; stroke-width: 1; stroke-dasharray: none; stroke-linecap: butt; stroke-dashoffset: 0; stroke-linejoin: miter; stroke-miterlimit: 4; fill: rgb(255,255,255); fill-rule: nonzero; opacity: 1;" vector-effect="non-scaling-stroke"  transform=" translate(-40, -36.7)" d="M 67.3 62.7 L 67.3 62.7 C 67.3 63.400000000000006 66.7 63.900000000000006 66.1 63.900000000000006 L 62.89999999999999 63.900000000000006 L 61.79999999999999 58.400000000000006 C 61.49999999999999 56.7 60.29999999999999 55.300000000000004 58.79999999999999 54.60000000000001 L 50.499999999999986 50.80000000000001 C 50.499999999999986 50.80000000000001 46.29999999999998 49.000000000000014 46.29999999999998 47.10000000000001 C 46.29999999999998 45.2 46.29999999999998 42.80000000000001 46.29999999999998 42.80000000000001 C 47.499999999999986 41.10000000000001 48.19999999999998 39.40000000000001 48.399999999999984 38.90000000000001 C 48.899999999999984 38.600000000000016 50.59999999999999 37.20000000000001 50.69999999999998 35.000000000000014 C 50.79999999999998 33.000000000000014 50.09999999999998 32.500000000000014 49.49999999999998 32.500000000000014 C 49.59999999999998 31.100000000000016 50.19999999999998 21.000000000000014 39.99999999999998 20.800000000000015 C 29.79999999999998 21.000000000000014 30.399999999999977 31.100000000000016 30.49999999999998 32.500000000000014 C 29.899999999999977 32.500000000000014 29.199999999999978 33.000000000000014 29.29999999999998 35.000000000000014 C 29.39999999999998 37.30000000000001 31.09999999999998 38.600000000000016 31.59999999999998 38.90000000000001 C 31.79999999999998 39.40000000000001 32.59999999999998 41.100000000000016 33.69999999999998 42.80000000000001 C 33.69999999999998 42.80000000000001 33.69999999999998 45.20000000000001 33.69999999999998 47.10000000000001 C 33.69999999999998 49.00000000000001 29.499999999999982 50.80000000000001 29.499999999999982 50.80000000000001 L 21 54.6 C 19.4 55.300000000000004 18.3 56.7 18 58.4 L 16.9 64 L 13.899999999999999 64 C 13.2 64 12.7 63.4 12.7 62.8 L 12.7 10.6 C 12.7 9.9 13.299999999999999 9.4 13.899999999999999 9.4 L 66 9.4 C 66.7 9.4 67.2 10 67.2 10.6 L 67.2 62.7 L 67.3 62.7 z" stroke-linecap="round" />
</g>
<g transform="matrix(2.33 0 0 2.47 413.5 -1051.5)" id="4UXs1ufjPhtlza_VXmjVy"  >
<path style="stroke: none; stroke-width: 1; stroke-dasharray: none; stroke-linecap: butt; stroke-dashoffset: 0; stroke-linejoin: miter; stroke-miterlimit: 4; fill: rgb(179,181,179); fill-rule: nonzero; opacity: 1;" vector-effect="non-scaling-stroke"  transform=" translate(-39.92, -39.95)" d="M 72.4 0 L 7.6 0 C 6.9 0 6.3 0.6 6.3 1.2 L 6.3 78.7 C 6.3 79.4 6.8999999999999995 79.9 7.5 79.9 L 72.3 79.9 C 73 79.9 73.5 79.30000000000001 73.5 78.7 L 73.5 1.2 C 73.7 0.6 73.1 0 72.4 0 z" stroke-linecap="round" />
</g>
<g transform="matrix(2.34 0 0 2.47 414 -1059.5)" id="Rzp5JjJ6rkRwWtTXCxp6B"  >
<path style="stroke: none; stroke-width: 1; stroke-dasharray: none; stroke-linecap: butt; stroke-dashoffset: 0; stroke-linejoin: miter; stroke-miterlimit: 4; fill: rgb(255,255,255); fill-rule: nonzero; opacity: 1;" vector-effect="non-scaling-stroke"  transform=" translate(-40, -36.7)" d="M 67.3 62.7 L 67.3 62.7 C 67.3 63.400000000000006 66.7 63.900000000000006 66.1 63.900000000000006 L 62.89999999999999 63.900000000000006 L 61.79999999999999 58.400000000000006 C 61.49999999999999 56.7 60.29999999999999 55.300000000000004 58.79999999999999 54.60000000000001 L 50.499999999999986 50.80000000000001 C 50.499999999999986 50.80000000000001 46.29999999999998 49.000000000000014 46.29999999999998 47.10000000000001 C 46.29999999999998 45.2 46.29999999999998 42.80000000000001 46.29999999999998 42.80000000000001 C 47.499999999999986 41.10000000000001 48.19999999999998 39.40000000000001 48.399999999999984 38.90000000000001 C 48.899999999999984 38.600000000000016 50.59999999999999 37.20000000000001 50.69999999999998 35.000000000000014 C 50.79999999999998 33.000000000000014 50.09999999999998 32.500000000000014 49.49999999999998 32.500000000000014 C 49.59999999999998 31.100000000000016 50.19999999999998 21.000000000000014 39.99999999999998 20.800000000000015 C 29.79999999999998 21.000000000000014 30.399999999999977 31.100000000000016 30.49999999999998 32.500000000000014 C 29.899999999999977 32.500000000000014 29.199999999999978 33.000000000000014 29.29999999999998 35.000000000000014 C 29.39999999999998 37.30000000000001 31.09999999999998 38.600000000000016 31.59999999999998 38.90000000000001 C 31.79999999999998 39.40000000000001 32.59999999999998 41.100000000000016 33.69999999999998 42.80000000000001 C 33.69999999999998 42.80000000000001 33.69999999999998 45.20000000000001 33.69999999999998 47.10000000000001 C 33.69999999999998 49.00000000000001 29.499999999999982 50.80000000000001 29.499999999999982 50.80000000000001 L 21 54.6 C 19.4 55.300000000000004 18.3 56.7 18 58.4 L 16.9 64 L 13.899999999999999 64 C 13.2 64 12.7 63.4 12.7 62.8 L 12.7 10.6 C 12.7 9.9 13.299999999999999 9.4 13.899999999999999 9.4 L 66 9.4 C 66.7 9.4 67.2 10 67.2 10.6 L 67.2 62.7 L 67.3 62.7 z" stroke-linecap="round" />
</g>
<g transform="matrix(2.33 0 0 2.47 414.5 -1097.5)" id="uwaiWX22uYbc7Zy7n5W94"  >
<path style="stroke: none; stroke-width: 1; stroke-dasharray: none; stroke-linecap: butt; stroke-dashoffset: 0; stroke-linejoin: miter; stroke-miterlimit: 4; fill: rgb(179,181,179); fill-rule: nonzero; opacity: 1;" vector-effect="non-scaling-stroke"  transform=" translate(-39.92, -39.95)" d="M 72.4 0 L 7.6 0 C 6.9 0 6.3 0.6 6.3 1.2 L 6.3 78.7 C 6.3 79.4 6.8999999999999995 79.9 7.5 79.9 L 72.3 79.9 C 73 79.9 73.5 79.30000000000001 73.5 78.7 L 73.5 1.2 C 73.7 0.6 73.1 0 72.4 0 z" stroke-linecap="round" />
</g>
<g transform="matrix(2.34 0 0 2.47 415 -1105.5)" id="j8y2BIyMJ60dQMWeNVofB"  >
<path style="stroke: none; stroke-width: 1; stroke-dasharray: none; stroke-linecap: butt; stroke-dashoffset: 0; stroke-linejoin: miter; stroke-miterlimit: 4; fill: rgb(255,255,255); fill-rule: nonzero; opacity: 1;" vector-effect="non-scaling-stroke"  transform=" translate(-40, -36.7)" d="M 67.3 62.7 L 67.3 62.7 C 67.3 63.400000000000006 66.7 63.900000000000006 66.1 63.900000000000006 L 62.89999999999999 63.900000000000006 L 61.79999999999999 58.400000000000006 C 61.49999999999999 56.7 60.29999999999999 55.300000000000004 58.79999999999999 54.60000000000001 L 50.499999999999986 50.80000000000001 C 50.499999999999986 50.80000000000001 46.29999999999998 49.000000000000014 46.29999999999998 47.10000000000001 C 46.29999999999998 45.2 46.29999999999998 42.80000000000001 46.29999999999998 42.80000000000001 C 47.499999999999986 41.10000000000001 48.19999999999998 39.40000000000001 48.399999999999984 38.90000000000001 C 48.899999999999984 38.600000000000016 50.59999999999999 37.20000000000001 50.69999999999998 35.000000000000014 C 50.79999999999998 33.000000000000014 50.09999999999998 32.500000000000014 49.49999999999998 32.500000000000014 C 49.59999999999998 31.100000000000016 50.19999999999998 21.000000000000014 39.99999999999998 20.800000000000015 C 29.79999999999998 21.000000000000014 30.399999999999977 31.100000000000016 30.49999999999998 32.500000000000014 C 29.899999999999977 32.500000000000014 29.199999999999978 33.000000000000014 29.29999999999998 35.000000000000014 C 29.39999999999998 37.30000000000001 31.09999999999998 38.600000000000016 31.59999999999998 38.90000000000001 C 31.79999999999998 39.40000000000001 32.59999999999998 41.100000000000016 33.69999999999998 42.80000000000001 C 33.69999999999998 42.80000000000001 33.69999999999998 45.20000000000001 33.69999999999998 47.10000000000001 C 33.69999999999998 49.00000000000001 29.499999999999982 50.80000000000001 29.499999999999982 50.80000000000001 L 21 54.6 C 19.4 55.300000000000004 18.3 56.7 18 58.4 L 16.9 64 L 13.899999999999999 64 C 13.2 64 12.7 63.4 12.7 62.8 L 12.7 10.6 C 12.7 9.9 13.299999999999999 9.4 13.899999999999999 9.4 L 66 9.4 C 66.7 9.4 67.2 10 67.2 10.6 L 67.2 62.7 L 67.3 62.7 z" stroke-linecap="round" />
</g>
<g transform="matrix(2.34 0 0 2.47 198.71 -1129.49)" id="c7ON0QiPVk160UiLx8g4e"  >
<path style="stroke: none; stroke-width: 1; stroke-dasharray: none; stroke-linecap: butt; stroke-dashoffset: 0; stroke-linejoin: miter; stroke-miterlimit: 4; fill: rgb(179,181,179); fill-rule: nonzero; opacity: 1;" vector-effect="non-scaling-stroke"  transform=" translate(-39.92, -39.95)" d="M 72.4 0 L 7.6 0 C 6.9 0 6.3 0.6 6.3 1.2 L 6.3 78.7 C 6.3 79.4 6.8999999999999995 79.9 7.5 79.9 L 72.3 79.9 C 73 79.9 73.5 79.30000000000001 73.5 78.7 L 73.5 1.2 C 73.7 0.6 73.1 0 72.4 0 z" stroke-linecap="round" />
</g>
<g transform="matrix(2.34 0 0 2.47 198.9 -1137.52)" id="gD7pwwurz2gFmM1Ml9WKz"  >
<path style="stroke: none; stroke-width: 1; stroke-dasharray: none; stroke-linecap: butt; stroke-dashoffset: 0; stroke-linejoin: miter; stroke-miterlimit: 4; fill: rgb(255,255,255); fill-rule: nonzero; opacity: 1;" vector-effect="non-scaling-stroke"  transform=" translate(-40, -36.7)" d="M 67.3 62.7 L 67.3 62.7 C 67.3 63.400000000000006 66.7 63.900000000000006 66.1 63.900000000000006 L 62.89999999999999 63.900000000000006 L 61.79999999999999 58.400000000000006 C 61.49999999999999 56.7 60.29999999999999 55.300000000000004 58.79999999999999 54.60000000000001 L 50.499999999999986 50.80000000000001 C 50.499999999999986 50.80000000000001 46.29999999999998 49.000000000000014 46.29999999999998 47.10000000000001 C 46.29999999999998 45.2 46.29999999999998 42.80000000000001 46.29999999999998 42.80000000000001 C 47.499999999999986 41.10000000000001 48.19999999999998 39.40000000000001 48.399999999999984 38.90000000000001 C 48.899999999999984 38.600000000000016 50.59999999999999 37.20000000000001 50.69999999999998 35.000000000000014 C 50.79999999999998 33.000000000000014 50.09999999999998 32.500000000000014 49.49999999999998 32.500000000000014 C 49.59999999999998 31.100000000000016 50.19999999999998 21.000000000000014 39.99999999999998 20.800000000000015 C 29.79999999999998 21.000000000000014 30.399999999999977 31.100000000000016 30.49999999999998 32.500000000000014 C 29.899999999999977 32.500000000000014 29.199999999999978 33.000000000000014 29.29999999999998 35.000000000000014 C 29.39999999999998 37.30000000000001 31.09999999999998 38.600000000000016 31.59999999999998 38.90000000000001 C 31.79999999999998 39.40000000000001 32.59999999999998 41.100000000000016 33.69999999999998 42.80000000000001 C 33.69999999999998 42.80000000000001 33.69999999999998 45.20000000000001 33.69999999999998 47.10000000000001 C 33.69999999999998 49.00000000000001 29.499999999999982 50.80000000000001 29.499999999999982 50.80000000000001 L 21 54.6 C 19.4 55.300000000000004 18.3 56.7 18 58.4 L 16.9 64 L 13.899999999999999 64 C 13.2 64 12.7 63.4 12.7 62.8 L 12.7 10.6 C 12.7 9.9 13.299999999999999 9.4 13.899999999999999 9.4 L 66 9.4 C 66.7 9.4 67.2 10 67.2 10.6 L 67.2 62.7 L 67.3 62.7 z" stroke-linecap="round" />
</g>
<g transform="matrix(2.34 0 0 2.47 198.71 -1129.49)" id="aW0ysrTCutMwxXZWSbh_O"  >
<path style="stroke: none; stroke-width: 1; stroke-dasharray: none; stroke-linecap: butt; stroke-dashoffset: 0; stroke-linejoin: miter; stroke-miterlimit: 4; fill: rgb(179,181,179); fill-rule: nonzero; opacity: 1;" vector-effect="non-scaling-stroke"  transform=" translate(-39.92, -39.95)" d="M 72.4 0 L 7.6 0 C 6.9 0 6.3 0.6 6.3 1.2 L 6.3 78.7 C 6.3 79.4 6.8999999999999995 79.9 7.5 79.9 L 72.3 79.9 C 73 79.9 73.5 79.30000000000001 73.5 78.7 L 73.5 1.2 C 73.7 0.6 73.1 0 72.4 0 z" stroke-linecap="round" />
</g>
<g transform="matrix(2.34 0 0 2.47 198.9 -1137.52)" id="zDQrkl0T_KUdvJI3e8QOn"  >
<path style="stroke: none; stroke-width: 1; stroke-dasharray: none; stroke-linecap: butt; stroke-dashoffset: 0; stroke-linejoin: miter; stroke-miterlimit: 4; fill: rgb(255,255,255); fill-rule: nonzero; opacity: 1;" vector-effect="non-scaling-stroke"  transform=" translate(-40, -36.7)" d="M 67.3 62.7 L 67.3 62.7 C 67.3 63.400000000000006 66.7 63.900000000000006 66.1 63.900000000000006 L 62.89999999999999 63.900000000000006 L 61.79999999999999 58.400000000000006 C 61.49999999999999 56.7 60.29999999999999 55.300000000000004 58.79999999999999 54.60000000000001 L 50.499999999999986 50.80000000000001 C 50.499999999999986 50.80000000000001 46.29999999999998 49.000000000000014 46.29999999999998 47.10000000000001 C 46.29999999999998 45.2 46.29999999999998 42.80000000000001 46.29999999999998 42.80000000000001 C 47.499999999999986 41.10000000000001 48.19999999999998 39.40000000000001 48.399999999999984 38.90000000000001 C 48.899999999999984 38.600000000000016 50.59999999999999 37.20000000000001 50.69999999999998 35.000000000000014 C 50.79999999999998 33.000000000000014 50.09999999999998 32.500000000000014 49.49999999999998 32.500000000000014 C 49.59999999999998 31.100000000000016 50.19999999999998 21.000000000000014 39.99999999999998 20.800000000000015 C 29.79999999999998 21.000000000000014 30.399999999999977 31.100000000000016 30.49999999999998 32.500000000000014 C 29.899999999999977 32.500000000000014 29.199999999999978 33.000000000000014 29.29999999999998 35.000000000000014 C 29.39999999999998 37.30000000000001 31.09999999999998 38.600000000000016 31.59999999999998 38.90000000000001 C 31.79999999999998 39.40000000000001 32.59999999999998 41.100000000000016 33.69999999999998 42.80000000000001 C 33.69999999999998 42.80000000000001 33.69999999999998 45.20000000000001 33.69999999999998 47.10000000000001 C 33.69999999999998 49.00000000000001 29.499999999999982 50.80000000000001 29.499999999999982 50.80000000000001 L 21 54.6 C 19.4 55.300000000000004 18.3 56.7 18 58.4 L 16.9 64 L 13.899999999999999 64 C 13.2 64 12.7 63.4 12.7 62.8 L 12.7 10.6 C 12.7 9.9 13.299999999999999 9.4 13.899999999999999 9.4 L 66 9.4 C 66.7 9.4 67.2 10 67.2 10.6 L 67.2 62.7 L 67.3 62.7 z" stroke-linecap="round" />
</g>
<g transform="matrix(2.34 0 0 2.47 198.71 -1129.49)" id="aQAA1tMKppyYHG6czeuey"  >
<path style="stroke: none; stroke-width: 1; stroke-dasharray: none; stroke-linecap: butt; stroke-dashoffset: 0; stroke-linejoin: miter; stroke-miterlimit: 4; fill: rgb(179,181,179); fill-rule: nonzero; opacity: 1;" vector-effect="non-scaling-stroke"  transform=" translate(-39.92, -39.95)" d="M 72.4 0 L 7.6 0 C 6.9 0 6.3 0.6 6.3 1.2 L 6.3 78.7 C 6.3 79.4 6.8999999999999995 79.9 7.5 79.9 L 72.3 79.9 C 73 79.9 73.5 79.30000000000001 73.5 78.7 L 73.5 1.2 C 73.7 0.6 73.1 0 72.4 0 z" stroke-linecap="round" />
</g>
<g transform="matrix(2.34 0 0 2.47 198.9 -1137.52)" id="2BTRZimdkOAqlQHeupZYD"  >
<path style="stroke: none; stroke-width: 1; stroke-dasharray: none; stroke-linecap: butt; stroke-dashoffset: 0; stroke-linejoin: miter; stroke-miterlimit: 4; fill: rgb(255,255,255); fill-rule: nonzero; opacity: 1;" vector-effect="non-scaling-stroke"  transform=" translate(-40, -36.7)" d="M 67.3 62.7 L 67.3 62.7 C 67.3 63.400000000000006 66.7 63.900000000000006 66.1 63.900000000000006 L 62.89999999999999 63.900000000000006 L 61.79999999999999 58.400000000000006 C 61.49999999999999 56.7 60.29999999999999 55.300000000000004 58.79999999999999 54.60000000000001 L 50.499999999999986 50.80000000000001 C 50.499999999999986 50.80000000000001 46.29999999999998 49.000000000000014 46.29999999999998 47.10000000000001 C 46.29999999999998 45.2 46.29999999999998 42.80000000000001 46.29999999999998 42.80000000000001 C 47.499999999999986 41.10000000000001 48.19999999999998 39.40000000000001 48.399999999999984 38.90000000000001 C 48.899999999999984 38.600000000000016 50.59999999999999 37.20000000000001 50.69999999999998 35.000000000000014 C 50.79999999999998 33.000000000000014 50.09999999999998 32.500000000000014 49.49999999999998 32.500000000000014 C 49.59999999999998 31.100000000000016 50.19999999999998 21.000000000000014 39.99999999999998 20.800000000000015 C 29.79999999999998 21.000000000000014 30.399999999999977 31.100000000000016 30.49999999999998 32.500000000000014 C 29.899999999999977 32.500000000000014 29.199999999999978 33.000000000000014 29.29999999999998 35.000000000000014 C 29.39999999999998 37.30000000000001 31.09999999999998 38.600000000000016 31.59999999999998 38.90000000000001 C 31.79999999999998 39.40000000000001 32.59999999999998 41.100000000000016 33.69999999999998 42.80000000000001 C 33.69999999999998 42.80000000000001 33.69999999999998 45.20000000000001 33.69999999999998 47.10000000000001 C 33.69999999999998 49.00000000000001 29.499999999999982 50.80000000000001 29.499999999999982 50.80000000000001 L 21 54.6 C 19.4 55.300000000000004 18.3 56.7 18 58.4 L 16.9 64 L 13.899999999999999 64 C 13.2 64 12.7 63.4 12.7 62.8 L 12.7 10.6 C 12.7 9.9 13.299999999999999 9.4 13.899999999999999 9.4 L 66 9.4 C 66.7 9.4 67.2 10 67.2 10.6 L 67.2 62.7 L 67.3 62.7 z" stroke-linecap="round" />
</g>
<g transform="matrix(2.34 0 0 2.47 198.71 -1129.49)" id="PkemtS0r-3jRFbLT2ZBQ7"  >
<path style="stroke: none; stroke-width: 1; stroke-dasharray: none; stroke-linecap: butt; stroke-dashoffset: 0; stroke-linejoin: miter; stroke-miterlimit: 4; fill: rgb(179,181,179); fill-rule: nonzero; opacity: 1;" vector-effect="non-scaling-stroke"  transform=" translate(-39.92, -39.95)" d="M 72.4 0 L 7.6 0 C 6.9 0 6.3 0.6 6.3 1.2 L 6.3 78.7 C 6.3 79.4 6.8999999999999995 79.9 7.5 79.9 L 72.3 79.9 C 73 79.9 73.5 79.30000000000001 73.5 78.7 L 73.5 1.2 C 73.7 0.6 73.1 0 72.4 0 z" stroke-linecap="round" />
</g>
<g transform="matrix(2.34 0 0 2.47 198.9 -1137.52)" id="V35b5THS-2QjKo7WWquP_"  >
<path style="stroke: none; stroke-width: 1; stroke-dasharray: none; stroke-linecap: butt; stroke-dashoffset: 0; stroke-linejoin: miter; stroke-miterlimit: 4; fill: rgb(255,255,255); fill-rule: nonzero; opacity: 1;" vector-effect="non-scaling-stroke"  transform=" translate(-40, -36.7)" d="M 67.3 62.7 L 67.3 62.7 C 67.3 63.400000000000006 66.7 63.900000000000006 66.1 63.900000000000006 L 62.89999999999999 63.900000000000006 L 61.79999999999999 58.400000000000006 C 61.49999999999999 56.7 60.29999999999999 55.300000000000004 58.79999999999999 54.60000000000001 L 50.499999999999986 50.80000000000001 C 50.499999999999986 50.80000000000001 46.29999999999998 49.000000000000014 46.29999999999998 47.10000000000001 C 46.29999999999998 45.2 46.29999999999998 42.80000000000001 46.29999999999998 42.80000000000001 C 47.499999999999986 41.10000000000001 48.19999999999998 39.40000000000001 48.399999999999984 38.90000000000001 C 48.899999999999984 38.600000000000016 50.59999999999999 37.20000000000001 50.69999999999998 35.000000000000014 C 50.79999999999998 33.000000000000014 50.09999999999998 32.500000000000014 49.49999999999998 32.500000000000014 C 49.59999999999998 31.100000000000016 50.19999999999998 21.000000000000014 39.99999999999998 20.800000000000015 C 29.79999999999998 21.000000000000014 30.399999999999977 31.100000000000016 30.49999999999998 32.500000000000014 C 29.899999999999977 32.500000000000014 29.199999999999978 33.000000000000014 29.29999999999998 35.000000000000014 C 29.39999999999998 37.30000000000001 31.09999999999998 38.600000000000016 31.59999999999998 38.90000000000001 C 31.79999999999998 39.40000000000001 32.59999999999998 41.100000000000016 33.69999999999998 42.80000000000001 C 33.69999999999998 42.80000000000001 33.69999999999998 45.20000000000001 33.69999999999998 47.10000000000001 C 33.69999999999998 49.00000000000001 29.499999999999982 50.80000000000001 29.499999999999982 50.80000000000001 L 21 54.6 C 19.4 55.300000000000004 18.3 56.7 18 58.4 L 16.9 64 L 13.899999999999999 64 C 13.2 64 12.7 63.4 12.7 62.8 L 12.7 10.6 C 12.7 9.9 13.299999999999999 9.4 13.899999999999999 9.4 L 66 9.4 C 66.7 9.4 67.2 10 67.2 10.6 L 67.2 62.7 L 67.3 62.7 z" stroke-linecap="round" />
</g>
<g transform="matrix(2.34 0 0 2.47 198.71 -1129.49)" id="cqURpBhOQMbECQcdMEyI3"  >
<path style="stroke: none; stroke-width: 1; stroke-dasharray: none; stroke-linecap: butt; stroke-dashoffset: 0; stroke-linejoin: miter; stroke-miterlimit: 4; fill: rgb(179,181,179); fill-rule: nonzero; opacity: 1;" vector-effect="non-scaling-stroke"  transform=" translate(-39.92, -39.95)" d="M 72.4 0 L 7.6 0 C 6.9 0 6.3 0.6 6.3 1.2 L 6.3 78.7 C 6.3 79.4 6.8999999999999995 79.9 7.5 79.9 L 72.3 79.9 C 73 79.9 73.5 79.30000000000001 73.5 78.7 L 73.5 1.2 C 73.7 0.6 73.1 0 72.4 0 z" stroke-linecap="round" />
</g>
<g transform="matrix(2.34 0 0 2.47 198.9 -1137.52)" id="PDADpwQ7xJUoHWTVaEt-Z"  >
<path style="stroke: none; stroke-width: 1; stroke-dasharray: none; stroke-linecap: butt; stroke-dashoffset: 0; stroke-linejoin: miter; stroke-miterlimit: 4; fill: rgb(255,255,255); fill-rule: nonzero; opacity: 1;" vector-effect="non-scaling-stroke"  transform=" translate(-40, -36.7)" d="M 67.3 62.7 L 67.3 62.7 C 67.3 63.400000000000006 66.7 63.900000000000006 66.1 63.900000000000006 L 62.89999999999999 63.900000000000006 L 61.79999999999999 58.400000000000006 C 61.49999999999999 56.7 60.29999999999999 55.300000000000004 58.79999999999999 54.60000000000001 L 50.499999999999986 50.80000000000001 C 50.499999999999986 50.80000000000001 46.29999999999998 49.000000000000014 46.29999999999998 47.10000000000001 C 46.29999999999998 45.2 46.29999999999998 42.80000000000001 46.29999999999998 42.80000000000001 C 47.499999999999986 41.10000000000001 48.19999999999998 39.40000000000001 48.399999999999984 38.90000000000001 C 48.899999999999984 38.600000000000016 50.59999999999999 37.20000000000001 50.69999999999998 35.000000000000014 C 50.79999999999998 33.000000000000014 50.09999999999998 32.500000000000014 49.49999999999998 32.500000000000014 C 49.59999999999998 31.100000000000016 50.19999999999998 21.000000000000014 39.99999999999998 20.800000000000015 C 29.79999999999998 21.000000000000014 30.399999999999977 31.100000000000016 30.49999999999998 32.500000000000014 C 29.899999999999977 32.500000000000014 29.199999999999978 33.000000000000014 29.29999999999998 35.000000000000014 C 29.39999999999998 37.30000000000001 31.09999999999998 38.600000000000016 31.59999999999998 38.90000000000001 C 31.79999999999998 39.40000000000001 32.59999999999998 41.100000000000016 33.69999999999998 42.80000000000001 C 33.69999999999998 42.80000000000001 33.69999999999998 45.20000000000001 33.69999999999998 47.10000000000001 C 33.69999999999998 49.00000000000001 29.499999999999982 50.80000000000001 29.499999999999982 50.80000000000001 L 21 54.6 C 19.4 55.300000000000004 18.3 56.7 18 58.4 L 16.9 64 L 13.899999999999999 64 C 13.2 64 12.7 63.4 12.7 62.8 L 12.7 10.6 C 12.7 9.9 13.299999999999999 9.4 13.899999999999999 9.4 L 66 9.4 C 66.7 9.4 67.2 10 67.2 10.6 L 67.2 62.7 L 67.3 62.7 z" stroke-linecap="round" />
</g>
<g transform="matrix(2.34 0 0 2.47 348.71 -1019.49)" id="B1k4N__91P442r44VbjGs"  >
<path style="stroke: none; stroke-width: 1; stroke-dasharray: none; stroke-linecap: butt; stroke-dashoffset: 0; stroke-linejoin: miter; stroke-miterlimit: 4; fill: rgb(179,181,179); fill-rule: nonzero; opacity: 1;" vector-effect="non-scaling-stroke"  transform=" translate(-39.92, -39.95)" d="M 72.4 0 L 7.6 0 C 6.9 0 6.3 0.6 6.3 1.2 L 6.3 78.7 C 6.3 79.4 6.8999999999999995 79.9 7.5 79.9 L 72.3 79.9 C 73 79.9 73.5 79.30000000000001 73.5 78.7 L 73.5 1.2 C 73.7 0.6 73.1 0 72.4 0 z" stroke-linecap="round" />
</g>
<g transform="matrix(2.34 0 0 2.47 348.9 -1027.52)" id="xWuGrsLZXFpfvKTfMaSkh"  >
<path style="stroke: none; stroke-width: 1; stroke-dasharray: none; stroke-linecap: butt; stroke-dashoffset: 0; stroke-linejoin: miter; stroke-miterlimit: 4; fill: rgb(255,255,255); fill-rule: nonzero; opacity: 1;" vector-effect="non-scaling-stroke"  transform=" translate(-40, -36.7)" d="M 67.3 62.7 L 67.3 62.7 C 67.3 63.400000000000006 66.7 63.900000000000006 66.1 63.900000000000006 L 62.89999999999999 63.900000000000006 L 61.79999999999999 58.400000000000006 C 61.49999999999999 56.7 60.29999999999999 55.300000000000004 58.79999999999999 54.60000000000001 L 50.499999999999986 50.80000000000001 C 50.499999999999986 50.80000000000001 46.29999999999998 49.000000000000014 46.29999999999998 47.10000000000001 C 46.29999999999998 45.2 46.29999999999998 42.80000000000001 46.29999999999998 42.80000000000001 C 47.499999999999986 41.10000000000001 48.19999999999998 39.40000000000001 48.399999999999984 38.90000000000001 C 48.899999999999984 38.600000000000016 50.59999999999999 37.20000000000001 50.69999999999998 35.000000000000014 C 50.79999999999998 33.000000000000014 50.09999999999998 32.500000000000014 49.49999999999998 32.500000000000014 C 49.59999999999998 31.100000000000016 50.19999999999998 21.000000000000014 39.99999999999998 20.800000000000015 C 29.79999999999998 21.000000000000014 30.399999999999977 31.100000000000016 30.49999999999998 32.500000000000014 C 29.899999999999977 32.500000000000014 29.199999999999978 33.000000000000014 29.29999999999998 35.000000000000014 C 29.39999999999998 37.30000000000001 31.09999999999998 38.600000000000016 31.59999999999998 38.90000000000001 C 31.79999999999998 39.40000000000001 32.59999999999998 41.100000000000016 33.69999999999998 42.80000000000001 C 33.69999999999998 42.80000000000001 33.69999999999998 45.20000000000001 33.69999999999998 47.10000000000001 C 33.69999999999998 49.00000000000001 29.499999999999982 50.80000000000001 29.499999999999982 50.80000000000001 L 21 54.6 C 19.4 55.300000000000004 18.3 56.7 18 58.4 L 16.9 64 L 13.899999999999999 64 C 13.2 64 12.7 63.4 12.7 62.8 L 12.7 10.6 C 12.7 9.9 13.299999999999999 9.4 13.899999999999999 9.4 L 66 9.4 C 66.7 9.4 67.2 10 67.2 10.6 L 67.2 62.7 L 67.3 62.7 z" stroke-linecap="round" />
</g>
<g transform="matrix(2.34 0 0 2.47 198.71 -1129.49)" id="-libmffvrPS_vKkJBC4KZ"  >
<path style="stroke: none; stroke-width: 1; stroke-dasharray: none; stroke-linecap: butt; stroke-dashoffset: 0; stroke-linejoin: miter; stroke-miterlimit: 4; fill: rgb(179,181,179); fill-rule: nonzero; opacity: 1;" vector-effect="non-scaling-stroke"  transform=" translate(-39.92, -39.95)" d="M 72.4 0 L 7.6 0 C 6.9 0 6.3 0.6 6.3 1.2 L 6.3 78.7 C 6.3 79.4 6.8999999999999995 79.9 7.5 79.9 L 72.3 79.9 C 73 79.9 73.5 79.30000000000001 73.5 78.7 L 73.5 1.2 C 73.7 0.6 73.1 0 72.4 0 z" stroke-linecap="round" />
</g>
<g transform="matrix(2.34 0 0 2.47 198.9 -1137.52)" id="zgQM0m5cqeKITQ5wS3EgX"  >
<path style="stroke: none; stroke-width: 1; stroke-dasharray: none; stroke-linecap: butt; stroke-dashoffset: 0; stroke-linejoin: miter; stroke-miterlimit: 4; fill: rgb(255,255,255); fill-rule: nonzero; opacity: 1;" vector-effect="non-scaling-stroke"  transform=" translate(-40, -36.7)" d="M 67.3 62.7 L 67.3 62.7 C 67.3 63.400000000000006 66.7 63.900000000000006 66.1 63.900000000000006 L 62.89999999999999 63.900000000000006 L 61.79999999999999 58.400000000000006 C 61.49999999999999 56.7 60.29999999999999 55.300000000000004 58.79999999999999 54.60000000000001 L 50.499999999999986 50.80000000000001 C 50.499999999999986 50.80000000000001 46.29999999999998 49.000000000000014 46.29999999999998 47.10000000000001 C 46.29999999999998 45.2 46.29999999999998 42.80000000000001 46.29999999999998 42.80000000000001 C 47.499999999999986 41.10000000000001 48.19999999999998 39.40000000000001 48.399999999999984 38.90000000000001 C 48.899999999999984 38.600000000000016 50.59999999999999 37.20000000000001 50.69999999999998 35.000000000000014 C 50.79999999999998 33.000000000000014 50.09999999999998 32.500000000000014 49.49999999999998 32.500000000000014 C 49.59999999999998 31.100000000000016 50.19999999999998 21.000000000000014 39.99999999999998 20.800000000000015 C 29.79999999999998 21.000000000000014 30.399999999999977 31.100000000000016 30.49999999999998 32.500000000000014 C 29.899999999999977 32.500000000000014 29.199999999999978 33.000000000000014 29.29999999999998 35.000000000000014 C 29.39999999999998 37.30000000000001 31.09999999999998 38.600000000000016 31.59999999999998 38.90000000000001 C 31.79999999999998 39.40000000000001 32.59999999999998 41.100000000000016 33.69999999999998 42.80000000000001 C 33.69999999999998 42.80000000000001 33.69999999999998 45.20000000000001 33.69999999999998 47.10000000000001 C 33.69999999999998 49.00000000000001 29.499999999999982 50.80000000000001 29.499999999999982 50.80000000000001 L 21 54.6 C 19.4 55.300000000000004 18.3 56.7 18 58.4 L 16.9 64 L 13.899999999999999 64 C 13.2 64 12.7 63.4 12.7 62.8 L 12.7 10.6 C 12.7 9.9 13.299999999999999 9.4 13.899999999999999 9.4 L 66 9.4 C 66.7 9.4 67.2 10 67.2 10.6 L 67.2 62.7 L 67.3 62.7 z" stroke-linecap="round" />
</g>
<g transform="matrix(1 0 0 1 0 0)" id="iTkUv9ivEyLTEfTgrh0da"  >
<path style="stroke: none; stroke-width: 1; stroke-dasharray: none; stroke-linecap: butt; stroke-dashoffset: 0; stroke-linejoin: miter; stroke-miterlimit: 4; fill: rgb(78,160,202); fill-rule: nonzero; opacity: 1;" vector-effect="non-scaling-stroke"  transform=" translate(-77.45, -242.3)" d="M 77.453 242.301" stroke-linecap="round" />
</g>
<g transform="matrix(2.33 0 0 2.47 407.5 -1232.5)" id="JoHxbitOUiJRVQgtO-eth"  >
<path style="stroke: none; stroke-width: 1; stroke-dasharray: none; stroke-linecap: butt; stroke-dashoffset: 0; stroke-linejoin: miter; stroke-miterlimit: 4; fill: rgb(179,181,179); fill-rule: nonzero; opacity: 1;" vector-effect="non-scaling-stroke"  transform=" translate(-39.92, -39.95)" d="M 72.4 0 L 7.6 0 C 6.9 0 6.3 0.6 6.3 1.2 L 6.3 78.7 C 6.3 79.4 6.8999999999999995 79.9 7.5 79.9 L 72.3 79.9 C 73 79.9 73.5 79.30000000000001 73.5 78.7 L 73.5 1.2 C 73.7 0.6 73.1 0 72.4 0 z" stroke-linecap="round" />
</g>
<g transform="matrix(2.34 0 0 2.47 408 -1240.5)" id="YkG8_1YRcrAOiTPO3iJ4m"  >
<path style="stroke: none; stroke-width: 1; stroke-dasharray: none; stroke-linecap: butt; stroke-dashoffset: 0; stroke-linejoin: miter; stroke-miterlimit: 4; fill: rgb(255,255,255); fill-rule: nonzero; opacity: 1;" vector-effect="non-scaling-stroke"  transform=" translate(-40, -36.7)" d="M 67.3 62.7 L 67.3 62.7 C 67.3 63.400000000000006 66.7 63.900000000000006 66.1 63.900000000000006 L 62.89999999999999 63.900000000000006 L 61.79999999999999 58.400000000000006 C 61.49999999999999 56.7 60.29999999999999 55.300000000000004 58.79999999999999 54.60000000000001 L 50.499999999999986 50.80000000000001 C 50.499999999999986 50.80000000000001 46.29999999999998 49.000000000000014 46.29999999999998 47.10000000000001 C 46.29999999999998 45.2 46.29999999999998 42.80000000000001 46.29999999999998 42.80000000000001 C 47.499999999999986 41.10000000000001 48.19999999999998 39.40000000000001 48.399999999999984 38.90000000000001 C 48.899999999999984 38.600000000000016 50.59999999999999 37.20000000000001 50.69999999999998 35.000000000000014 C 50.79999999999998 33.000000000000014 50.09999999999998 32.500000000000014 49.49999999999998 32.500000000000014 C 49.59999999999998 31.100000000000016 50.19999999999998 21.000000000000014 39.99999999999998 20.800000000000015 C 29.79999999999998 21.000000000000014 30.399999999999977 31.100000000000016 30.49999999999998 32.500000000000014 C 29.899999999999977 32.500000000000014 29.199999999999978 33.000000000000014 29.29999999999998 35.000000000000014 C 29.39999999999998 37.30000000000001 31.09999999999998 38.600000000000016 31.59999999999998 38.90000000000001 C 31.79999999999998 39.40000000000001 32.59999999999998 41.100000000000016 33.69999999999998 42.80000000000001 C 33.69999999999998 42.80000000000001 33.69999999999998 45.20000000000001 33.69999999999998 47.10000000000001 C 33.69999999999998 49.00000000000001 29.499999999999982 50.80000000000001 29.499999999999982 50.80000000000001 L 21 54.6 C 19.4 55.300000000000004 18.3 56.7 18 58.4 L 16.9 64 L 13.899999999999999 64 C 13.2 64 12.7 63.4 12.7 62.8 L 12.7 10.6 C 12.7 9.9 13.299999999999999 9.4 13.899999999999999 9.4 L 66 9.4 C 66.7 9.4 67.2 10 67.2 10.6 L 67.2 62.7 L 67.3 62.7 z" stroke-linecap="round" />
</g>
<g transform="matrix(2.33 0 0 2.47 257.5 -1342.5)" id="bBaONLpQ84iQgR3FEdj_m"  >
<path style="stroke: none; stroke-width: 1; stroke-dasharray: none; stroke-linecap: butt; stroke-dashoffset: 0; stroke-linejoin: miter; stroke-miterlimit: 4; fill: rgb(179,181,179); fill-rule: nonzero; opacity: 1;" vector-effect="non-scaling-stroke"  transform=" translate(-39.92, -39.95)" d="M 72.4 0 L 7.6 0 C 6.9 0 6.3 0.6 6.3 1.2 L 6.3 78.7 C 6.3 79.4 6.8999999999999995 79.9 7.5 79.9 L 72.3 79.9 C 73 79.9 73.5 79.30000000000001 73.5 78.7 L 73.5 1.2 C 73.7 0.6 73.1 0 72.4 0 z" stroke-linecap="round" />
</g>
<g transform="matrix(2.34 0 0 2.47 258 -1350.5)" id="PGVxlQSrAGeeLb6nPbGFY"  >
<path style="stroke: none; stroke-width: 1; stroke-dasharray: none; stroke-linecap: butt; stroke-dashoffset: 0; stroke-linejoin: miter; stroke-miterlimit: 4; fill: rgb(255,255,255); fill-rule: nonzero; opacity: 1;" vector-effect="non-scaling-stroke"  transform=" translate(-40, -36.7)" d="M 67.3 62.7 L 67.3 62.7 C 67.3 63.400000000000006 66.7 63.900000000000006 66.1 63.900000000000006 L 62.89999999999999 63.900000000000006 L 61.79999999999999 58.400000000000006 C 61.49999999999999 56.7 60.29999999999999 55.300000000000004 58.79999999999999 54.60000000000001 L 50.499999999999986 50.80000000000001 C 50.499999999999986 50.80000000000001 46.29999999999998 49.000000000000014 46.29999999999998 47.10000000000001 C 46.29999999999998 45.2 46.29999999999998 42.80000000000001 46.29999999999998 42.80000000000001 C 47.499999999999986 41.10000000000001 48.19999999999998 39.40000000000001 48.399999999999984 38.90000000000001 C 48.899999999999984 38.600000000000016 50.59999999999999 37.20000000000001 50.69999999999998 35.000000000000014 C 50.79999999999998 33.000000000000014 50.09999999999998 32.500000000000014 49.49999999999998 32.500000000000014 C 49.59999999999998 31.100000000000016 50.19999999999998 21.000000000000014 39.99999999999998 20.800000000000015 C 29.79999999999998 21.000000000000014 30.399999999999977 31.100000000000016 30.49999999999998 32.500000000000014 C 29.899999999999977 32.500000000000014 29.199999999999978 33.000000000000014 29.29999999999998 35.000000000000014 C 29.39999999999998 37.30000000000001 31.09999999999998 38.600000000000016 31.59999999999998 38.90000000000001 C 31.79999999999998 39.40000000000001 32.59999999999998 41.100000000000016 33.69999999999998 42.80000000000001 C 33.69999999999998 42.80000000000001 33.69999999999998 45.20000000000001 33.69999999999998 47.10000000000001 C 33.69999999999998 49.00000000000001 29.499999999999982 50.80000000000001 29.499999999999982 50.80000000000001 L 21 54.6 C 19.4 55.300000000000004 18.3 56.7 18 58.4 L 16.9 64 L 13.899999999999999 64 C 13.2 64 12.7 63.4 12.7 62.8 L 12.7 10.6 C 12.7 9.9 13.299999999999999 9.4 13.899999999999999 9.4 L 66 9.4 C 66.7 9.4 67.2 10 67.2 10.6 L 67.2 62.7 L 67.3 62.7 z" stroke-linecap="round" />
</g>
<g transform="matrix(0 0 0 0 59 -213)" id="ZadB9vDJJ1PcpHTl2FgFp"  >
<path style="stroke: none; stroke-width: 1; stroke-dasharray: none; stroke-linecap: butt; stroke-dashoffset: 0; stroke-linejoin: miter; stroke-miterlimit: 4; fill: rgb(78,160,202); fill-rule: nonzero; opacity: 1;" vector-effect="non-scaling-stroke"  transform=" translate(-77.45, -242.3)" d="M 77.453 242.301" stroke-linecap="round" />
</g>
<g transform="matrix(2.33 0 0 2.47 137.5 -1106.5)" id="EZHBZvauUT9MtsRpHrS1w"  >
<path style="stroke: none; stroke-width: 1; stroke-dasharray: none; stroke-linecap: butt; stroke-dashoffset: 0; stroke-linejoin: miter; stroke-miterlimit: 4; fill: rgb(179,181,179); fill-rule: nonzero; opacity: 1;" vector-effect="non-scaling-stroke"  transform=" translate(-39.92, -39.95)" d="M 72.4 0 L 7.6 0 C 6.9 0 6.3 0.6 6.3 1.2 L 6.3 78.7 C 6.3 79.4 6.8999999999999995 79.9 7.5 79.9 L 72.3 79.9 C 73 79.9 73.5 79.30000000000001 73.5 78.7 L 73.5 1.2 C 73.7 0.6 73.1 0 72.4 0 z" stroke-linecap="round" />
</g>
<g transform="matrix(2.34 0 0 2.47 138 -1114.5)" id="jJWeh_GcaKZnZZl_W-4WX"  >
<path style="stroke: none; stroke-width: 1; stroke-dasharray: none; stroke-linecap: butt; stroke-dashoffset: 0; stroke-linejoin: miter; stroke-miterlimit: 4; fill: rgb(255,255,255); fill-rule: nonzero; opacity: 1;" vector-effect="non-scaling-stroke"  transform=" translate(-40, -36.7)" d="M 67.3 62.7 L 67.3 62.7 C 67.3 63.400000000000006 66.7 63.900000000000006 66.1 63.900000000000006 L 62.89999999999999 63.900000000000006 L 61.79999999999999 58.400000000000006 C 61.49999999999999 56.7 60.29999999999999 55.300000000000004 58.79999999999999 54.60000000000001 L 50.499999999999986 50.80000000000001 C 50.499999999999986 50.80000000000001 46.29999999999998 49.000000000000014 46.29999999999998 47.10000000000001 C 46.29999999999998 45.2 46.29999999999998 42.80000000000001 46.29999999999998 42.80000000000001 C 47.499999999999986 41.10000000000001 48.19999999999998 39.40000000000001 48.399999999999984 38.90000000000001 C 48.899999999999984 38.600000000000016 50.59999999999999 37.20000000000001 50.69999999999998 35.000000000000014 C 50.79999999999998 33.000000000000014 50.09999999999998 32.500000000000014 49.49999999999998 32.500000000000014 C 49.59999999999998 31.100000000000016 50.19999999999998 21.000000000000014 39.99999999999998 20.800000000000015 C 29.79999999999998 21.000000000000014 30.399999999999977 31.100000000000016 30.49999999999998 32.500000000000014 C 29.899999999999977 32.500000000000014 29.199999999999978 33.000000000000014 29.29999999999998 35.000000000000014 C 29.39999999999998 37.30000000000001 31.09999999999998 38.600000000000016 31.59999999999998 38.90000000000001 C 31.79999999999998 39.40000000000001 32.59999999999998 41.100000000000016 33.69999999999998 42.80000000000001 C 33.69999999999998 42.80000000000001 33.69999999999998 45.20000000000001 33.69999999999998 47.10000000000001 C 33.69999999999998 49.00000000000001 29.499999999999982 50.80000000000001 29.499999999999982 50.80000000000001 L 21 54.6 C 19.4 55.300000000000004 18.3 56.7 18 58.4 L 16.9 64 L 13.899999999999999 64 C 13.2 64 12.7 63.4 12.7 62.8 L 12.7 10.6 C 12.7 9.9 13.299999999999999 9.4 13.899999999999999 9.4 L 66 9.4 C 66.7 9.4 67.2 10 67.2 10.6 L 67.2 62.7 L 67.3 62.7 z" stroke-linecap="round" />
</g>
<g transform="matrix(2.33 0 0 2.47 -12.5 -1216.5)" id="7ML7TerLH9OLRxCNZ82En"  >
<path style="stroke: none; stroke-width: 1; stroke-dasharray: none; stroke-linecap: butt; stroke-dashoffset: 0; stroke-linejoin: miter; stroke-miterlimit: 4; fill: rgb(179,181,179); fill-rule: nonzero; opacity: 1;" vector-effect="non-scaling-stroke"  transform=" translate(-39.92, -39.95)" d="M 72.4 0 L 7.6 0 C 6.9 0 6.3 0.6 6.3 1.2 L 6.3 78.7 C 6.3 79.4 6.8999999999999995 79.9 7.5 79.9 L 72.3 79.9 C 73 79.9 73.5 79.30000000000001 73.5 78.7 L 73.5 1.2 C 73.7 0.6 73.1 0 72.4 0 z" stroke-linecap="round" />
</g>
<g transform="matrix(2.34 0 0 2.47 -12 -1224.5)" id="rwBUnc44q35prCFgTW3Nz"  >
<path style="stroke: none; stroke-width: 1; stroke-dasharray: none; stroke-linecap: butt; stroke-dashoffset: 0; stroke-linejoin: miter; stroke-miterlimit: 4; fill: rgb(255,255,255); fill-rule: nonzero; opacity: 1;" vector-effect="non-scaling-stroke"  transform=" translate(-40, -36.7)" d="M 67.3 62.7 L 67.3 62.7 C 67.3 63.400000000000006 66.7 63.900000000000006 66.1 63.900000000000006 L 62.89999999999999 63.900000000000006 L 61.79999999999999 58.400000000000006 C 61.49999999999999 56.7 60.29999999999999 55.300000000000004 58.79999999999999 54.60000000000001 L 50.499999999999986 50.80000000000001 C 50.499999999999986 50.80000000000001 46.29999999999998 49.000000000000014 46.29999999999998 47.10000000000001 C 46.29999999999998 45.2 46.29999999999998 42.80000000000001 46.29999999999998 42.80000000000001 C 47.499999999999986 41.10000000000001 48.19999999999998 39.40000000000001 48.399999999999984 38.90000000000001 C 48.899999999999984 38.600000000000016 50.59999999999999 37.20000000000001 50.69999999999998 35.000000000000014 C 50.79999999999998 33.000000000000014 50.09999999999998 32.500000000000014 49.49999999999998 32.500000000000014 C 49.59999999999998 31.100000000000016 50.19999999999998 21.000000000000014 39.99999999999998 20.800000000000015 C 29.79999999999998 21.000000000000014 30.399999999999977 31.100000000000016 30.49999999999998 32.500000000000014 C 29.899999999999977 32.500000000000014 29.199999999999978 33.000000000000014 29.29999999999998 35.000000000000014 C 29.39999999999998 37.30000000000001 31.09999999999998 38.600000000000016 31.59999999999998 38.90000000000001 C 31.79999999999998 39.40000000000001 32.59999999999998 41.100000000000016 33.69999999999998 42.80000000000001 C 33.69999999999998 42.80000000000001 33.69999999999998 45.20000000000001 33.69999999999998 47.10000000000001 C 33.69999999999998 49.00000000000001 29.499999999999982 50.80000000000001 29.499999999999982 50.80000000000001 L 21 54.6 C 19.4 55.300000000000004 18.3 56.7 18 58.4 L 16.9 64 L 13.899999999999999 64 C 13.2 64 12.7 63.4 12.7 62.8 L 12.7 10.6 C 12.7 9.9 13.299999999999999 9.4 13.899999999999999 9.4 L 66 9.4 C 66.7 9.4 67.2 10 67.2 10.6 L 67.2 62.7 L 67.3 62.7 z" stroke-linecap="round" />
</g>
<g transform="matrix(0 0 0 0 -211 -87)" id="i8FV1uNnSr8bOrCxs_7Ze"  >
<path style="stroke: none; stroke-width: 1; stroke-dasharray: none; stroke-linecap: butt; stroke-dashoffset: 0; stroke-linejoin: miter; stroke-miterlimit: 4; fill: rgb(78,160,202); fill-rule: nonzero; opacity: 1;" vector-effect="non-scaling-stroke"  transform=" translate(-77.45, -242.3)" d="M 77.453 242.301" stroke-linecap="round" />
</g>
<g transform="matrix(2.34 0 0 2.47 348.71 -1019.49)" id="nkRK0fUPupz2S71kk_k37"  >
<path style="stroke: none; stroke-width: 1; stroke-dasharray: none; stroke-linecap: butt; stroke-dashoffset: 0; stroke-linejoin: miter; stroke-miterlimit: 4; fill: rgb(179,181,179); fill-rule: nonzero; opacity: 1;" vector-effect="non-scaling-stroke"  transform=" translate(-39.92, -39.95)" d="M 72.4 0 L 7.6 0 C 6.9 0 6.3 0.6 6.3 1.2 L 6.3 78.7 C 6.3 79.4 6.8999999999999995 79.9 7.5 79.9 L 72.3 79.9 C 73 79.9 73.5 79.30000000000001 73.5 78.7 L 73.5 1.2 C 73.7 0.6 73.1 0 72.4 0 z" stroke-linecap="round" />
</g>
<g transform="matrix(2.34 0 0 2.47 348.9 -1027.52)" id="VcTXQltuR5SgfzcoT3Fn6"  >
<path style="stroke: none; stroke-width: 1; stroke-dasharray: none; stroke-linecap: butt; stroke-dashoffset: 0; stroke-linejoin: miter; stroke-miterlimit: 4; fill: rgb(255,255,255); fill-rule: nonzero; opacity: 1;" vector-effect="non-scaling-stroke"  transform=" translate(-40, -36.7)" d="M 67.3 62.7 L 67.3 62.7 C 67.3 63.400000000000006 66.7 63.900000000000006 66.1 63.900000000000006 L 62.89999999999999 63.900000000000006 L 61.79999999999999 58.400000000000006 C 61.49999999999999 56.7 60.29999999999999 55.300000000000004 58.79999999999999 54.60000000000001 L 50.499999999999986 50.80000000000001 C 50.499999999999986 50.80000000000001 46.29999999999998 49.000000000000014 46.29999999999998 47.10000000000001 C 46.29999999999998 45.2 46.29999999999998 42.80000000000001 46.29999999999998 42.80000000000001 C 47.499999999999986 41.10000000000001 48.19999999999998 39.40000000000001 48.399999999999984 38.90000000000001 C 48.899999999999984 38.600000000000016 50.59999999999999 37.20000000000001 50.69999999999998 35.000000000000014 C 50.79999999999998 33.000000000000014 50.09999999999998 32.500000000000014 49.49999999999998 32.500000000000014 C 49.59999999999998 31.100000000000016 50.19999999999998 21.000000000000014 39.99999999999998 20.800000000000015 C 29.79999999999998 21.000000000000014 30.399999999999977 31.100000000000016 30.49999999999998 32.500000000000014 C 29.899999999999977 32.500000000000014 29.199999999999978 33.000000000000014 29.29999999999998 35.000000000000014 C 29.39999999999998 37.30000000000001 31.09999999999998 38.600000000000016 31.59999999999998 38.90000000000001 C 31.79999999999998 39.40000000000001 32.59999999999998 41.100000000000016 33.69999999999998 42.80000000000001 C 33.69999999999998 42.80000000000001 33.69999999999998 45.20000000000001 33.69999999999998 47.10000000000001 C 33.69999999999998 49.00000000000001 29.499999999999982 50.80000000000001 29.499999999999982 50.80000000000001 L 21 54.6 C 19.4 55.300000000000004 18.3 56.7 18 58.4 L 16.9 64 L 13.899999999999999 64 C 13.2 64 12.7 63.4 12.7 62.8 L 12.7 10.6 C 12.7 9.9 13.299999999999999 9.4 13.899999999999999 9.4 L 66 9.4 C 66.7 9.4 67.2 10 67.2 10.6 L 67.2 62.7 L 67.3 62.7 z" stroke-linecap="round" />
</g>
<g transform="matrix(2.34 0 0 2.47 198.71 -1129.49)" id="rH7ZZ7G_Hqji5pO-MZRtl"  >
<path style="stroke: none; stroke-width: 1; stroke-dasharray: none; stroke-linecap: butt; stroke-dashoffset: 0; stroke-linejoin: miter; stroke-miterlimit: 4; fill: rgb(179,181,179); fill-rule: nonzero; opacity: 1;" vector-effect="non-scaling-stroke"  transform=" translate(-39.92, -39.95)" d="M 72.4 0 L 7.6 0 C 6.9 0 6.3 0.6 6.3 1.2 L 6.3 78.7 C 6.3 79.4 6.8999999999999995 79.9 7.5 79.9 L 72.3 79.9 C 73 79.9 73.5 79.30000000000001 73.5 78.7 L 73.5 1.2 C 73.7 0.6 73.1 0 72.4 0 z" stroke-linecap="round" />
</g>
<g transform="matrix(2.34 0 0 2.47 198.9 -1137.52)" id="ShKymYSinug6w5LGzXayv"  >
<path style="stroke: none; stroke-width: 1; stroke-dasharray: none; stroke-linecap: butt; stroke-dashoffset: 0; stroke-linejoin: miter; stroke-miterlimit: 4; fill: rgb(255,255,255); fill-rule: nonzero; opacity: 1;" vector-effect="non-scaling-stroke"  transform=" translate(-40, -36.7)" d="M 67.3 62.7 L 67.3 62.7 C 67.3 63.400000000000006 66.7 63.900000000000006 66.1 63.900000000000006 L 62.89999999999999 63.900000000000006 L 61.79999999999999 58.400000000000006 C 61.49999999999999 56.7 60.29999999999999 55.300000000000004 58.79999999999999 54.60000000000001 L 50.499999999999986 50.80000000000001 C 50.499999999999986 50.80000000000001 46.29999999999998 49.000000000000014 46.29999999999998 47.10000000000001 C 46.29999999999998 45.2 46.29999999999998 42.80000000000001 46.29999999999998 42.80000000000001 C 47.499999999999986 41.10000000000001 48.19999999999998 39.40000000000001 48.399999999999984 38.90000000000001 C 48.899999999999984 38.600000000000016 50.59999999999999 37.20000000000001 50.69999999999998 35.000000000000014 C 50.79999999999998 33.000000000000014 50.09999999999998 32.500000000000014 49.49999999999998 32.500000000000014 C 49.59999999999998 31.100000000000016 50.19999999999998 21.000000000000014 39.99999999999998 20.800000000000015 C 29.79999999999998 21.000000000000014 30.399999999999977 31.100000000000016 30.49999999999998 32.500000000000014 C 29.899999999999977 32.500000000000014 29.199999999999978 33.000000000000014 29.29999999999998 35.000000000000014 C 29.39999999999998 37.30000000000001 31.09999999999998 38.600000000000016 31.59999999999998 38.90000000000001 C 31.79999999999998 39.40000000000001 32.59999999999998 41.100000000000016 33.69999999999998 42.80000000000001 C 33.69999999999998 42.80000000000001 33.69999999999998 45.20000000000001 33.69999999999998 47.10000000000001 C 33.69999999999998 49.00000000000001 29.499999999999982 50.80000000000001 29.499999999999982 50.80000000000001 L 21 54.6 C 19.4 55.300000000000004 18.3 56.7 18 58.4 L 16.9 64 L 13.899999999999999 64 C 13.2 64 12.7 63.4 12.7 62.8 L 12.7 10.6 C 12.7 9.9 13.299999999999999 9.4 13.899999999999999 9.4 L 66 9.4 C 66.7 9.4 67.2 10 67.2 10.6 L 67.2 62.7 L 67.3 62.7 z" stroke-linecap="round" />
</g>
<g transform="matrix(1 0 0 1 0 0)" id="rBJzEGuUvAvLszYQAGXAZ"  >
<path style="stroke: none; stroke-width: 1; stroke-dasharray: none; stroke-linecap: butt; stroke-dashoffset: 0; stroke-linejoin: miter; stroke-miterlimit: 4; fill: rgb(78,160,202); fill-rule: nonzero; opacity: 1;" vector-effect="non-scaling-stroke"  transform=" translate(-77.45, -242.3)" d="M 77.453 242.301" stroke-linecap="round" />
</g>
<g transform="matrix(0 0 0 0 -129 125)" id="AFnMPnzXIYc2oLIxNM4G0"  >
<path style="stroke: none; stroke-width: 1; stroke-dasharray: none; stroke-linecap: butt; stroke-dashoffset: 0; stroke-linejoin: miter; stroke-miterlimit: 4; fill: rgb(78,160,202); fill-rule: nonzero; opacity: 1;" vector-effect="non-scaling-stroke"  transform=" translate(-77.45, -242.3)" d="M 77.453 242.301" stroke-linecap="round" />
</g>
</svg>