<?xml version="1.0" encoding="UTF-8" standalone="no" ?>
<!DOCTYPE svg PUBLIC "-//W3C//DTD SVG 1.1//EN" "http://www.w3.org/Graphics/SVG/1.1/DTD/svg11.dtd">
<svg xmlns="http://www.w3.org/2000/svg" xmlns:xlink="http://www.w3.org/1999/xlink" version="1.1" width="200" height="280" viewBox="0 0 200 280" xml:space="preserve">
<desc>Created with Fabric.js 4.6.0</desc>
<defs>
</defs>
<g transform="matrix(1 0 0 1 100 140)" id="dSVnAtC6nKEeWiSLEd689"  >
<path style="stroke: rgb(230,126,5); stroke-width: 0; stroke-dasharray: none; stroke-linecap: butt; stroke-dashoffset: 0; stroke-linejoin: miter; stroke-miterlimit: 4; fill: rgb(22,93,19); fill-rule: nonzero; opacity: 1;" vector-effect="non-scaling-stroke"  transform=" translate(0, 0)" d="M -100 -132.1536 C -100 -136.48705 -96.48705 -140 -92.1536 -140 L 92.03902000000001 -140 L 92.03902000000001 -140 C 96.43575000000001 -140 100.00000000000001 -136.43575 100.00000000000001 -132.03902 L 100.00000000000001 131.5777 L 100.00000000000001 131.5777 C 100.00000000000001 136.22921 96.22921000000001 140 91.57770000000002 140 L -92.02747999999997 140 L -92.02747999999997 140 C -96.43057999999996 140 -99.99999999999997 136.43058 -99.99999999999997 132.02748 z" stroke-linecap="round" />
</g>
<g transform="matrix(2.34 0 0 2.47 498.71 -909.49)" id="FdbrzgkkYLK7Mc9KTIKUu"  >
<path style="stroke: none; stroke-width: 1; stroke-dasharray: none; stroke-linecap: butt; stroke-dashoffset: 0; stroke-linejoin: miter; stroke-miterlimit: 4; fill: rgb(179,181,179); fill-rule: nonzero; opacity: 1;" vector-effect="non-scaling-stroke"  transform=" translate(-39.92, -39.95)" d="M 72.4 0 L 7.6 0 C 6.9 0 6.3 0.6 6.3 1.2 L 6.3 78.7 C 6.3 79.4 6.8999999999999995 79.9 7.5 79.9 L 72.3 79.9 C 73 79.9 73.5 79.30000000000001 73.5 78.7 L 73.5 1.2 C 73.7 0.6 73.1 0 72.4 0 z" stroke-linecap="round" />
</g>
<g transform="matrix(2.34 0 0 2.47 498.9 -917.52)" id="ZE2FZNBV55qK6PPB6KRim"  >
<path style="stroke: none; stroke-width: 1; stroke-dasharray: none; stroke-linecap: butt; stroke-dashoffset: 0; stroke-linejoin: miter; stroke-miterlimit: 4; fill: rgb(255,255,255); fill-rule: nonzero; opacity: 1;" vector-effect="non-scaling-stroke"  transform=" translate(-40, -36.7)" d="M 67.3 62.7 L 67.3 62.7 C 67.3 63.400000000000006 66.7 63.900000000000006 66.1 63.900000000000006 L 62.89999999999999 63.900000000000006 L 61.79999999999999 58.400000000000006 C 61.49999999999999 56.7 60.29999999999999 55.300000000000004 58.79999999999999 54.60000000000001 L 50.499999999999986 50.80000000000001 C 50.499999999999986 50.80000000000001 46.29999999999998 49.000000000000014 46.29999999999998 47.10000000000001 C 46.29999999999998 45.2 46.29999999999998 42.80000000000001 46.29999999999998 42.80000000000001 C 47.499999999999986 41.10000000000001 48.19999999999998 39.40000000000001 48.399999999999984 38.90000000000001 C 48.899999999999984 38.600000000000016 50.59999999999999 37.20000000000001 50.69999999999998 35.000000000000014 C 50.79999999999998 33.000000000000014 50.09999999999998 32.500000000000014 49.49999999999998 32.500000000000014 C 49.59999999999998 31.100000000000016 50.19999999999998 21.000000000000014 39.99999999999998 20.800000000000015 C 29.79999999999998 21.000000000000014 30.399999999999977 31.100000000000016 30.49999999999998 32.500000000000014 C 29.899999999999977 32.500000000000014 29.199999999999978 33.000000000000014 29.29999999999998 35.000000000000014 C 29.39999999999998 37.30000000000001 31.09999999999998 38.600000000000016 31.59999999999998 38.90000000000001 C 31.79999999999998 39.40000000000001 32.59999999999998 41.100000000000016 33.69999999999998 42.80000000000001 C 33.69999999999998 42.80000000000001 33.69999999999998 45.20000000000001 33.69999999999998 47.10000000000001 C 33.69999999999998 49.00000000000001 29.499999999999982 50.80000000000001 29.499999999999982 50.80000000000001 L 21 54.6 C 19.4 55.300000000000004 18.3 56.7 18 58.4 L 16.9 64 L 13.899999999999999 64 C 13.2 64 12.7 63.4 12.7 62.8 L 12.7 10.6 C 12.7 9.9 13.299999999999999 9.4 13.899999999999999 9.4 L 66 9.4 C 66.7 9.4 67.2 10 67.2 10.6 L 67.2 62.7 L 67.3 62.7 z" stroke-linecap="round" />
</g>
<g transform="matrix(2.34 0 0 2.47 348.71 -1019.49)" id="RsnehB28yd5Gevm4To6nP"  >
<path style="stroke: none; stroke-width: 1; stroke-dasharray: none; stroke-linecap: butt; stroke-dashoffset: 0; stroke-linejoin: miter; stroke-miterlimit: 4; fill: rgb(179,181,179); fill-rule: nonzero; opacity: 1;" vector-effect="non-scaling-stroke"  transform=" translate(-39.92, -39.95)" d="M 72.4 0 L 7.6 0 C 6.9 0 6.3 0.6 6.3 1.2 L 6.3 78.7 C 6.3 79.4 6.8999999999999995 79.9 7.5 79.9 L 72.3 79.9 C 73 79.9 73.5 79.30000000000001 73.5 78.7 L 73.5 1.2 C 73.7 0.6 73.1 0 72.4 0 z" stroke-linecap="round" />
</g>
<g transform="matrix(2.34 0 0 2.47 348.9 -1027.52)" id="PC3k8uSHI9nQAfN2GiDf2"  >
<path style="stroke: none; stroke-width: 1; stroke-dasharray: none; stroke-linecap: butt; stroke-dashoffset: 0; stroke-linejoin: miter; stroke-miterlimit: 4; fill: rgb(255,255,255); fill-rule: nonzero; opacity: 1;" vector-effect="non-scaling-stroke"  transform=" translate(-40, -36.7)" d="M 67.3 62.7 L 67.3 62.7 C 67.3 63.400000000000006 66.7 63.900000000000006 66.1 63.900000000000006 L 62.89999999999999 63.900000000000006 L 61.79999999999999 58.400000000000006 C 61.49999999999999 56.7 60.29999999999999 55.300000000000004 58.79999999999999 54.60000000000001 L 50.499999999999986 50.80000000000001 C 50.499999999999986 50.80000000000001 46.29999999999998 49.000000000000014 46.29999999999998 47.10000000000001 C 46.29999999999998 45.2 46.29999999999998 42.80000000000001 46.29999999999998 42.80000000000001 C 47.499999999999986 41.10000000000001 48.19999999999998 39.40000000000001 48.399999999999984 38.90000000000001 C 48.899999999999984 38.600000000000016 50.59999999999999 37.20000000000001 50.69999999999998 35.000000000000014 C 50.79999999999998 33.000000000000014 50.09999999999998 32.500000000000014 49.49999999999998 32.500000000000014 C 49.59999999999998 31.100000000000016 50.19999999999998 21.000000000000014 39.99999999999998 20.800000000000015 C 29.79999999999998 21.000000000000014 30.399999999999977 31.100000000000016 30.49999999999998 32.500000000000014 C 29.899999999999977 32.500000000000014 29.199999999999978 33.000000000000014 29.29999999999998 35.000000000000014 C 29.39999999999998 37.30000000000001 31.09999999999998 38.600000000000016 31.59999999999998 38.90000000000001 C 31.79999999999998 39.40000000000001 32.59999999999998 41.100000000000016 33.69999999999998 42.80000000000001 C 33.69999999999998 42.80000000000001 33.69999999999998 45.20000000000001 33.69999999999998 47.10000000000001 C 33.69999999999998 49.00000000000001 29.499999999999982 50.80000000000001 29.499999999999982 50.80000000000001 L 21 54.6 C 19.4 55.300000000000004 18.3 56.7 18 58.4 L 16.9 64 L 13.899999999999999 64 C 13.2 64 12.7 63.4 12.7 62.8 L 12.7 10.6 C 12.7 9.9 13.299999999999999 9.4 13.899999999999999 9.4 L 66 9.4 C 66.7 9.4 67.2 10 67.2 10.6 L 67.2 62.7 L 67.3 62.7 z" stroke-linecap="round" />
</g>
<g transform="matrix(1 0 0 1 150 110)" id="KJW74baBKNzRwkY-AUI-q"  >
<path style="stroke: none; stroke-width: 1; stroke-dasharray: none; stroke-linecap: butt; stroke-dashoffset: 0; stroke-linejoin: miter; stroke-miterlimit: 4; fill: rgb(78,160,202); fill-rule: nonzero; opacity: 1;" vector-effect="non-scaling-stroke"  transform=" translate(-77.45, -242.3)" d="M 77.453 242.301" stroke-linecap="round" />
</g>
<g transform="matrix(2.33 0 0 2.47 564.5 -979.5)" id="OoCLkWJivZlJDtnwfuJ6N"  >
<path style="stroke: none; stroke-width: 1; stroke-dasharray: none; stroke-linecap: butt; stroke-dashoffset: 0; stroke-linejoin: miter; stroke-miterlimit: 4; fill: rgb(179,181,179); fill-rule: nonzero; opacity: 1;" vector-effect="non-scaling-stroke"  transform=" translate(-39.92, -39.95)" d="M 72.4 0 L 7.6 0 C 6.9 0 6.3 0.6 6.3 1.2 L 6.3 78.7 C 6.3 79.4 6.8999999999999995 79.9 7.5 79.9 L 72.3 79.9 C 73 79.9 73.5 79.30000000000001 73.5 78.7 L 73.5 1.2 C 73.7 0.6 73.1 0 72.4 0 z" stroke-linecap="round" />
</g>
<g transform="matrix(2.34 0 0 2.47 565 -987.5)" id="0u4ZC5Yqrf-_6RG3nCh_h"  >
<path style="stroke: none; stroke-width: 1; stroke-dasharray: none; stroke-linecap: butt; stroke-dashoffset: 0; stroke-linejoin: miter; stroke-miterlimit: 4; fill: rgb(255,255,255); fill-rule: nonzero; opacity: 1;" vector-effect="non-scaling-stroke"  transform=" translate(-40, -36.7)" d="M 67.3 62.7 L 67.3 62.7 C 67.3 63.400000000000006 66.7 63.900000000000006 66.1 63.900000000000006 L 62.89999999999999 63.900000000000006 L 61.79999999999999 58.400000000000006 C 61.49999999999999 56.7 60.29999999999999 55.300000000000004 58.79999999999999 54.60000000000001 L 50.499999999999986 50.80000000000001 C 50.499999999999986 50.80000000000001 46.29999999999998 49.000000000000014 46.29999999999998 47.10000000000001 C 46.29999999999998 45.2 46.29999999999998 42.80000000000001 46.29999999999998 42.80000000000001 C 47.499999999999986 41.10000000000001 48.19999999999998 39.40000000000001 48.399999999999984 38.90000000000001 C 48.899999999999984 38.600000000000016 50.59999999999999 37.20000000000001 50.69999999999998 35.000000000000014 C 50.79999999999998 33.000000000000014 50.09999999999998 32.500000000000014 49.49999999999998 32.500000000000014 C 49.59999999999998 31.100000000000016 50.19999999999998 21.000000000000014 39.99999999999998 20.800000000000015 C 29.79999999999998 21.000000000000014 30.399999999999977 31.100000000000016 30.49999999999998 32.500000000000014 C 29.899999999999977 32.500000000000014 29.199999999999978 33.000000000000014 29.29999999999998 35.000000000000014 C 29.39999999999998 37.30000000000001 31.09999999999998 38.600000000000016 31.59999999999998 38.90000000000001 C 31.79999999999998 39.40000000000001 32.59999999999998 41.100000000000016 33.69999999999998 42.80000000000001 C 33.69999999999998 42.80000000000001 33.69999999999998 45.20000000000001 33.69999999999998 47.10000000000001 C 33.69999999999998 49.00000000000001 29.499999999999982 50.80000000000001 29.499999999999982 50.80000000000001 L 21 54.6 C 19.4 55.300000000000004 18.3 56.7 18 58.4 L 16.9 64 L 13.899999999999999 64 C 13.2 64 12.7 63.4 12.7 62.8 L 12.7 10.6 C 12.7 9.9 13.299999999999999 9.4 13.899999999999999 9.4 L 66 9.4 C 66.7 9.4 67.2 10 67.2 10.6 L 67.2 62.7 L 67.3 62.7 z" stroke-linecap="round" />
</g>
<g transform="matrix(2.33 0 0 2.47 558.5 -999.5)" id="yWr40yUQvxXhQQq4AJSoT"  >
<path style="stroke: none; stroke-width: 1; stroke-dasharray: none; stroke-linecap: butt; stroke-dashoffset: 0; stroke-linejoin: miter; stroke-miterlimit: 4; fill: rgb(179,181,179); fill-rule: nonzero; opacity: 1;" vector-effect="non-scaling-stroke"  transform=" translate(-39.92, -39.95)" d="M 72.4 0 L 7.6 0 C 6.9 0 6.3 0.6 6.3 1.2 L 6.3 78.7 C 6.3 79.4 6.8999999999999995 79.9 7.5 79.9 L 72.3 79.9 C 73 79.9 73.5 79.30000000000001 73.5 78.7 L 73.5 1.2 C 73.7 0.6 73.1 0 72.4 0 z" stroke-linecap="round" />
</g>
<g transform="matrix(2.34 0 0 2.47 559 -1007.5)" id="uhmIGmj63RK3KjlV-JAMi"  >
<path style="stroke: none; stroke-width: 1; stroke-dasharray: none; stroke-linecap: butt; stroke-dashoffset: 0; stroke-linejoin: miter; stroke-miterlimit: 4; fill: rgb(255,255,255); fill-rule: nonzero; opacity: 1;" vector-effect="non-scaling-stroke"  transform=" translate(-40, -36.7)" d="M 67.3 62.7 L 67.3 62.7 C 67.3 63.400000000000006 66.7 63.900000000000006 66.1 63.900000000000006 L 62.89999999999999 63.900000000000006 L 61.79999999999999 58.400000000000006 C 61.49999999999999 56.7 60.29999999999999 55.300000000000004 58.79999999999999 54.60000000000001 L 50.499999999999986 50.80000000000001 C 50.499999999999986 50.80000000000001 46.29999999999998 49.000000000000014 46.29999999999998 47.10000000000001 C 46.29999999999998 45.2 46.29999999999998 42.80000000000001 46.29999999999998 42.80000000000001 C 47.499999999999986 41.10000000000001 48.19999999999998 39.40000000000001 48.399999999999984 38.90000000000001 C 48.899999999999984 38.600000000000016 50.59999999999999 37.20000000000001 50.69999999999998 35.000000000000014 C 50.79999999999998 33.000000000000014 50.09999999999998 32.500000000000014 49.49999999999998 32.500000000000014 C 49.59999999999998 31.100000000000016 50.19999999999998 21.000000000000014 39.99999999999998 20.800000000000015 C 29.79999999999998 21.000000000000014 30.399999999999977 31.100000000000016 30.49999999999998 32.500000000000014 C 29.899999999999977 32.500000000000014 29.199999999999978 33.000000000000014 29.29999999999998 35.000000000000014 C 29.39999999999998 37.30000000000001 31.09999999999998 38.600000000000016 31.59999999999998 38.90000000000001 C 31.79999999999998 39.40000000000001 32.59999999999998 41.100000000000016 33.69999999999998 42.80000000000001 C 33.69999999999998 42.80000000000001 33.69999999999998 45.20000000000001 33.69999999999998 47.10000000000001 C 33.69999999999998 49.00000000000001 29.499999999999982 50.80000000000001 29.499999999999982 50.80000000000001 L 21 54.6 C 19.4 55.300000000000004 18.3 56.7 18 58.4 L 16.9 64 L 13.899999999999999 64 C 13.2 64 12.7 63.4 12.7 62.8 L 12.7 10.6 C 12.7 9.9 13.299999999999999 9.4 13.899999999999999 9.4 L 66 9.4 C 66.7 9.4 67.2 10 67.2 10.6 L 67.2 62.7 L 67.3 62.7 z" stroke-linecap="round" />
</g>
<g transform="matrix(2.33 0 0 2.47 568.5 -999.5)" id="2rZNHGWZeHRTDBI1DRIpv"  >
<path style="stroke: none; stroke-width: 1; stroke-dasharray: none; stroke-linecap: butt; stroke-dashoffset: 0; stroke-linejoin: miter; stroke-miterlimit: 4; fill: rgb(179,181,179); fill-rule: nonzero; opacity: 1;" vector-effect="non-scaling-stroke"  transform=" translate(-39.92, -39.95)" d="M 72.4 0 L 7.6 0 C 6.9 0 6.3 0.6 6.3 1.2 L 6.3 78.7 C 6.3 79.4 6.8999999999999995 79.9 7.5 79.9 L 72.3 79.9 C 73 79.9 73.5 79.30000000000001 73.5 78.7 L 73.5 1.2 C 73.7 0.6 73.1 0 72.4 0 z" stroke-linecap="round" />
</g>
<g transform="matrix(2.34 0 0 2.47 569 -1007.5)" id="ZqCb-4nMf78U5RNheIpT6"  >
<path style="stroke: none; stroke-width: 1; stroke-dasharray: none; stroke-linecap: butt; stroke-dashoffset: 0; stroke-linejoin: miter; stroke-miterlimit: 4; fill: rgb(255,255,255); fill-rule: nonzero; opacity: 1;" vector-effect="non-scaling-stroke"  transform=" translate(-40, -36.7)" d="M 67.3 62.7 L 67.3 62.7 C 67.3 63.400000000000006 66.7 63.900000000000006 66.1 63.900000000000006 L 62.89999999999999 63.900000000000006 L 61.79999999999999 58.400000000000006 C 61.49999999999999 56.7 60.29999999999999 55.300000000000004 58.79999999999999 54.60000000000001 L 50.499999999999986 50.80000000000001 C 50.499999999999986 50.80000000000001 46.29999999999998 49.000000000000014 46.29999999999998 47.10000000000001 C 46.29999999999998 45.2 46.29999999999998 42.80000000000001 46.29999999999998 42.80000000000001 C 47.499999999999986 41.10000000000001 48.19999999999998 39.40000000000001 48.399999999999984 38.90000000000001 C 48.899999999999984 38.600000000000016 50.59999999999999 37.20000000000001 50.69999999999998 35.000000000000014 C 50.79999999999998 33.000000000000014 50.09999999999998 32.500000000000014 49.49999999999998 32.500000000000014 C 49.59999999999998 31.100000000000016 50.19999999999998 21.000000000000014 39.99999999999998 20.800000000000015 C 29.79999999999998 21.000000000000014 30.399999999999977 31.100000000000016 30.49999999999998 32.500000000000014 C 29.899999999999977 32.500000000000014 29.199999999999978 33.000000000000014 29.29999999999998 35.000000000000014 C 29.39999999999998 37.30000000000001 31.09999999999998 38.600000000000016 31.59999999999998 38.90000000000001 C 31.79999999999998 39.40000000000001 32.59999999999998 41.100000000000016 33.69999999999998 42.80000000000001 C 33.69999999999998 42.80000000000001 33.69999999999998 45.20000000000001 33.69999999999998 47.10000000000001 C 33.69999999999998 49.00000000000001 29.499999999999982 50.80000000000001 29.499999999999982 50.80000000000001 L 21 54.6 C 19.4 55.300000000000004 18.3 56.7 18 58.4 L 16.9 64 L 13.899999999999999 64 C 13.2 64 12.7 63.4 12.7 62.8 L 12.7 10.6 C 12.7 9.9 13.299999999999999 9.4 13.899999999999999 9.4 L 66 9.4 C 66.7 9.4 67.2 10 67.2 10.6 L 67.2 62.7 L 67.3 62.7 z" stroke-linecap="round" />
</g>
<g transform="matrix(2.33 0 0 2.47 588.5 -996.5)" id="i1qg1VW2bgRTo4FeM2dLt"  >
<path style="stroke: none; stroke-width: 1; stroke-dasharray: none; stroke-linecap: butt; stroke-dashoffset: 0; stroke-linejoin: miter; stroke-miterlimit: 4; fill: rgb(179,181,179); fill-rule: nonzero; opacity: 1;" vector-effect="non-scaling-stroke"  transform=" translate(-39.92, -39.95)" d="M 72.4 0 L 7.6 0 C 6.9 0 6.3 0.6 6.3 1.2 L 6.3 78.7 C 6.3 79.4 6.8999999999999995 79.9 7.5 79.9 L 72.3 79.9 C 73 79.9 73.5 79.30000000000001 73.5 78.7 L 73.5 1.2 C 73.7 0.6 73.1 0 72.4 0 z" stroke-linecap="round" />
</g>
<g transform="matrix(2.34 0 0 2.47 589 -1004.5)" id="ppcQyiFBOuKhcrwbe3CKD"  >
<path style="stroke: none; stroke-width: 1; stroke-dasharray: none; stroke-linecap: butt; stroke-dashoffset: 0; stroke-linejoin: miter; stroke-miterlimit: 4; fill: rgb(255,255,255); fill-rule: nonzero; opacity: 1;" vector-effect="non-scaling-stroke"  transform=" translate(-40, -36.7)" d="M 67.3 62.7 L 67.3 62.7 C 67.3 63.400000000000006 66.7 63.900000000000006 66.1 63.900000000000006 L 62.89999999999999 63.900000000000006 L 61.79999999999999 58.400000000000006 C 61.49999999999999 56.7 60.29999999999999 55.300000000000004 58.79999999999999 54.60000000000001 L 50.499999999999986 50.80000000000001 C 50.499999999999986 50.80000000000001 46.29999999999998 49.000000000000014 46.29999999999998 47.10000000000001 C 46.29999999999998 45.2 46.29999999999998 42.80000000000001 46.29999999999998 42.80000000000001 C 47.499999999999986 41.10000000000001 48.19999999999998 39.40000000000001 48.399999999999984 38.90000000000001 C 48.899999999999984 38.600000000000016 50.59999999999999 37.20000000000001 50.69999999999998 35.000000000000014 C 50.79999999999998 33.000000000000014 50.09999999999998 32.500000000000014 49.49999999999998 32.500000000000014 C 49.59999999999998 31.100000000000016 50.19999999999998 21.000000000000014 39.99999999999998 20.800000000000015 C 29.79999999999998 21.000000000000014 30.399999999999977 31.100000000000016 30.49999999999998 32.500000000000014 C 29.899999999999977 32.500000000000014 29.199999999999978 33.000000000000014 29.29999999999998 35.000000000000014 C 29.39999999999998 37.30000000000001 31.09999999999998 38.600000000000016 31.59999999999998 38.90000000000001 C 31.79999999999998 39.40000000000001 32.59999999999998 41.100000000000016 33.69999999999998 42.80000000000001 C 33.69999999999998 42.80000000000001 33.69999999999998 45.20000000000001 33.69999999999998 47.10000000000001 C 33.69999999999998 49.00000000000001 29.499999999999982 50.80000000000001 29.499999999999982 50.80000000000001 L 21 54.6 C 19.4 55.300000000000004 18.3 56.7 18 58.4 L 16.9 64 L 13.899999999999999 64 C 13.2 64 12.7 63.4 12.7 62.8 L 12.7 10.6 C 12.7 9.9 13.299999999999999 9.4 13.899999999999999 9.4 L 66 9.4 C 66.7 9.4 67.2 10 67.2 10.6 L 67.2 62.7 L 67.3 62.7 z" stroke-linecap="round" />
</g>
<g transform="matrix(2.33 0 0 2.47 567.5 -979.5)" id="9CNQTIzIlL0peQTtCn9vX"  >
<path style="stroke: none; stroke-width: 1; stroke-dasharray: none; stroke-linecap: butt; stroke-dashoffset: 0; stroke-linejoin: miter; stroke-miterlimit: 4; fill: rgb(179,181,179); fill-rule: nonzero; opacity: 1;" vector-effect="non-scaling-stroke"  transform=" translate(-39.92, -39.95)" d="M 72.4 0 L 7.6 0 C 6.9 0 6.3 0.6 6.3 1.2 L 6.3 78.7 C 6.3 79.4 6.8999999999999995 79.9 7.5 79.9 L 72.3 79.9 C 73 79.9 73.5 79.30000000000001 73.5 78.7 L 73.5 1.2 C 73.7 0.6 73.1 0 72.4 0 z" stroke-linecap="round" />
</g>
<g transform="matrix(2.34 0 0 2.47 569 -987.5)" id="kj-s8X9SAI924wXYOJHOh"  >
<path style="stroke: none; stroke-width: 1; stroke-dasharray: none; stroke-linecap: butt; stroke-dashoffset: 0; stroke-linejoin: miter; stroke-miterlimit: 4; fill: rgb(255,255,255); fill-rule: nonzero; opacity: 1;" vector-effect="non-scaling-stroke"  transform=" translate(-40, -36.7)" d="M 67.3 62.7 L 67.3 62.7 C 67.3 63.400000000000006 66.7 63.900000000000006 66.1 63.900000000000006 L 62.89999999999999 63.900000000000006 L 61.79999999999999 58.400000000000006 C 61.49999999999999 56.7 60.29999999999999 55.300000000000004 58.79999999999999 54.60000000000001 L 50.499999999999986 50.80000000000001 C 50.499999999999986 50.80000000000001 46.29999999999998 49.000000000000014 46.29999999999998 47.10000000000001 C 46.29999999999998 45.2 46.29999999999998 42.80000000000001 46.29999999999998 42.80000000000001 C 47.499999999999986 41.10000000000001 48.19999999999998 39.40000000000001 48.399999999999984 38.90000000000001 C 48.899999999999984 38.600000000000016 50.59999999999999 37.20000000000001 50.69999999999998 35.000000000000014 C 50.79999999999998 33.000000000000014 50.09999999999998 32.500000000000014 49.49999999999998 32.500000000000014 C 49.59999999999998 31.100000000000016 50.19999999999998 21.000000000000014 39.99999999999998 20.800000000000015 C 29.79999999999998 21.000000000000014 30.399999999999977 31.100000000000016 30.49999999999998 32.500000000000014 C 29.899999999999977 32.500000000000014 29.199999999999978 33.000000000000014 29.29999999999998 35.000000000000014 C 29.39999999999998 37.30000000000001 31.09999999999998 38.600000000000016 31.59999999999998 38.90000000000001 C 31.79999999999998 39.40000000000001 32.59999999999998 41.100000000000016 33.69999999999998 42.80000000000001 C 33.69999999999998 42.80000000000001 33.69999999999998 45.20000000000001 33.69999999999998 47.10000000000001 C 33.69999999999998 49.00000000000001 29.499999999999982 50.80000000000001 29.499999999999982 50.80000000000001 L 21 54.6 C 19.4 55.300000000000004 18.3 56.7 18 58.4 L 16.9 64 L 13.899999999999999 64 C 13.2 64 12.7 63.4 12.7 62.8 L 12.7 10.6 C 12.7 9.9 13.299999999999999 9.4 13.899999999999999 9.4 L 66 9.4 C 66.7 9.4 67.2 10 67.2 10.6 L 67.2 62.7 L 67.3 62.7 z" stroke-linecap="round" />
</g>
<g transform="matrix(2.34 0 0 2.47 348.71 -1019.49)" id="75q3HJ6oyKaLkS8tT6Da8"  >
<path style="stroke: none; stroke-width: 1; stroke-dasharray: none; stroke-linecap: butt; stroke-dashoffset: 0; stroke-linejoin: miter; stroke-miterlimit: 4; fill: rgb(179,181,179); fill-rule: nonzero; opacity: 1;" vector-effect="non-scaling-stroke"  transform=" translate(-39.92, -39.95)" d="M 72.4 0 L 7.6 0 C 6.9 0 6.3 0.6 6.3 1.2 L 6.3 78.7 C 6.3 79.4 6.8999999999999995 79.9 7.5 79.9 L 72.3 79.9 C 73 79.9 73.5 79.30000000000001 73.5 78.7 L 73.5 1.2 C 73.7 0.6 73.1 0 72.4 0 z" stroke-linecap="round" />
</g>
<g transform="matrix(2.34 0 0 2.47 348.9 -1027.52)" id="yGPPKpuVdz-ul5gu_NGSZ"  >
<path style="stroke: none; stroke-width: 1; stroke-dasharray: none; stroke-linecap: butt; stroke-dashoffset: 0; stroke-linejoin: miter; stroke-miterlimit: 4; fill: rgb(255,255,255); fill-rule: nonzero; opacity: 1;" vector-effect="non-scaling-stroke"  transform=" translate(-40, -36.7)" d="M 67.3 62.7 L 67.3 62.7 C 67.3 63.400000000000006 66.7 63.900000000000006 66.1 63.900000000000006 L 62.89999999999999 63.900000000000006 L 61.79999999999999 58.400000000000006 C 61.49999999999999 56.7 60.29999999999999 55.300000000000004 58.79999999999999 54.60000000000001 L 50.499999999999986 50.80000000000001 C 50.499999999999986 50.80000000000001 46.29999999999998 49.000000000000014 46.29999999999998 47.10000000000001 C 46.29999999999998 45.2 46.29999999999998 42.80000000000001 46.29999999999998 42.80000000000001 C 47.499999999999986 41.10000000000001 48.19999999999998 39.40000000000001 48.399999999999984 38.90000000000001 C 48.899999999999984 38.600000000000016 50.59999999999999 37.20000000000001 50.69999999999998 35.000000000000014 C 50.79999999999998 33.000000000000014 50.09999999999998 32.500000000000014 49.49999999999998 32.500000000000014 C 49.59999999999998 31.100000000000016 50.19999999999998 21.000000000000014 39.99999999999998 20.800000000000015 C 29.79999999999998 21.000000000000014 30.399999999999977 31.100000000000016 30.49999999999998 32.500000000000014 C 29.899999999999977 32.500000000000014 29.199999999999978 33.000000000000014 29.29999999999998 35.000000000000014 C 29.39999999999998 37.30000000000001 31.09999999999998 38.600000000000016 31.59999999999998 38.90000000000001 C 31.79999999999998 39.40000000000001 32.59999999999998 41.100000000000016 33.69999999999998 42.80000000000001 C 33.69999999999998 42.80000000000001 33.69999999999998 45.20000000000001 33.69999999999998 47.10000000000001 C 33.69999999999998 49.00000000000001 29.499999999999982 50.80000000000001 29.499999999999982 50.80000000000001 L 21 54.6 C 19.4 55.300000000000004 18.3 56.7 18 58.4 L 16.9 64 L 13.899999999999999 64 C 13.2 64 12.7 63.4 12.7 62.8 L 12.7 10.6 C 12.7 9.9 13.299999999999999 9.4 13.899999999999999 9.4 L 66 9.4 C 66.7 9.4 67.2 10 67.2 10.6 L 67.2 62.7 L 67.3 62.7 z" stroke-linecap="round" />
</g>
<g transform="matrix(2.34 0 0 2.47 198.71 -1129.49)" id="OIzIucLVd9SWvMI-PHB23"  >
<path style="stroke: none; stroke-width: 1; stroke-dasharray: none; stroke-linecap: butt; stroke-dashoffset: 0; stroke-linejoin: miter; stroke-miterlimit: 4; fill: rgb(179,181,179); fill-rule: nonzero; opacity: 1;" vector-effect="non-scaling-stroke"  transform=" translate(-39.92, -39.95)" d="M 72.4 0 L 7.6 0 C 6.9 0 6.3 0.6 6.3 1.2 L 6.3 78.7 C 6.3 79.4 6.8999999999999995 79.9 7.5 79.9 L 72.3 79.9 C 73 79.9 73.5 79.30000000000001 73.5 78.7 L 73.5 1.2 C 73.7 0.6 73.1 0 72.4 0 z" stroke-linecap="round" />
</g>
<g transform="matrix(2.34 0 0 2.47 198.9 -1137.52)" id="YnoC84XnCfYRfO2rG78wm"  >
<path style="stroke: none; stroke-width: 1; stroke-dasharray: none; stroke-linecap: butt; stroke-dashoffset: 0; stroke-linejoin: miter; stroke-miterlimit: 4; fill: rgb(255,255,255); fill-rule: nonzero; opacity: 1;" vector-effect="non-scaling-stroke"  transform=" translate(-40, -36.7)" d="M 67.3 62.7 L 67.3 62.7 C 67.3 63.400000000000006 66.7 63.900000000000006 66.1 63.900000000000006 L 62.89999999999999 63.900000000000006 L 61.79999999999999 58.400000000000006 C 61.49999999999999 56.7 60.29999999999999 55.300000000000004 58.79999999999999 54.60000000000001 L 50.499999999999986 50.80000000000001 C 50.499999999999986 50.80000000000001 46.29999999999998 49.000000000000014 46.29999999999998 47.10000000000001 C 46.29999999999998 45.2 46.29999999999998 42.80000000000001 46.29999999999998 42.80000000000001 C 47.499999999999986 41.10000000000001 48.19999999999998 39.40000000000001 48.399999999999984 38.90000000000001 C 48.899999999999984 38.600000000000016 50.59999999999999 37.20000000000001 50.69999999999998 35.000000000000014 C 50.79999999999998 33.000000000000014 50.09999999999998 32.500000000000014 49.49999999999998 32.500000000000014 C 49.59999999999998 31.100000000000016 50.19999999999998 21.000000000000014 39.99999999999998 20.800000000000015 C 29.79999999999998 21.000000000000014 30.399999999999977 31.100000000000016 30.49999999999998 32.500000000000014 C 29.899999999999977 32.500000000000014 29.199999999999978 33.000000000000014 29.29999999999998 35.000000000000014 C 29.39999999999998 37.30000000000001 31.09999999999998 38.600000000000016 31.59999999999998 38.90000000000001 C 31.79999999999998 39.40000000000001 32.59999999999998 41.100000000000016 33.69999999999998 42.80000000000001 C 33.69999999999998 42.80000000000001 33.69999999999998 45.20000000000001 33.69999999999998 47.10000000000001 C 33.69999999999998 49.00000000000001 29.499999999999982 50.80000000000001 29.499999999999982 50.80000000000001 L 21 54.6 C 19.4 55.300000000000004 18.3 56.7 18 58.4 L 16.9 64 L 13.899999999999999 64 C 13.2 64 12.7 63.4 12.7 62.8 L 12.7 10.6 C 12.7 9.9 13.299999999999999 9.4 13.899999999999999 9.4 L 66 9.4 C 66.7 9.4 67.2 10 67.2 10.6 L 67.2 62.7 L 67.3 62.7 z" stroke-linecap="round" />
</g>
<g transform="matrix(1 0 0 1 0 0)" id="qSKS2EB7O7QinkVttZNXT"  >
<path style="stroke: none; stroke-width: 1; stroke-dasharray: none; stroke-linecap: butt; stroke-dashoffset: 0; stroke-linejoin: miter; stroke-miterlimit: 4; fill: rgb(78,160,202); fill-rule: nonzero; opacity: 1;" vector-effect="non-scaling-stroke"  transform=" translate(-77.45, -242.3)" d="M 77.453 242.301" stroke-linecap="round" />
</g>
<g transform="matrix(2.33 0 0 2.47 414.5 -1089.5)" id="lv0E1gahpe61vkHLYuymO"  >
<path style="stroke: none; stroke-width: 1; stroke-dasharray: none; stroke-linecap: butt; stroke-dashoffset: 0; stroke-linejoin: miter; stroke-miterlimit: 4; fill: rgb(179,181,179); fill-rule: nonzero; opacity: 1;" vector-effect="non-scaling-stroke"  transform=" translate(-39.92, -39.95)" d="M 72.4 0 L 7.6 0 C 6.9 0 6.3 0.6 6.3 1.2 L 6.3 78.7 C 6.3 79.4 6.8999999999999995 79.9 7.5 79.9 L 72.3 79.9 C 73 79.9 73.5 79.30000000000001 73.5 78.7 L 73.5 1.2 C 73.7 0.6 73.1 0 72.4 0 z" stroke-linecap="round" />
</g>
<g transform="matrix(2.34 0 0 2.47 415 -1097.5)" id="Mh-1vdYIMhiN_N_1FkFKT"  >
<path style="stroke: none; stroke-width: 1; stroke-dasharray: none; stroke-linecap: butt; stroke-dashoffset: 0; stroke-linejoin: miter; stroke-miterlimit: 4; fill: rgb(255,255,255); fill-rule: nonzero; opacity: 1;" vector-effect="non-scaling-stroke"  transform=" translate(-40, -36.7)" d="M 67.3 62.7 L 67.3 62.7 C 67.3 63.400000000000006 66.7 63.900000000000006 66.1 63.900000000000006 L 62.89999999999999 63.900000000000006 L 61.79999999999999 58.400000000000006 C 61.49999999999999 56.7 60.29999999999999 55.300000000000004 58.79999999999999 54.60000000000001 L 50.499999999999986 50.80000000000001 C 50.499999999999986 50.80000000000001 46.29999999999998 49.000000000000014 46.29999999999998 47.10000000000001 C 46.29999999999998 45.2 46.29999999999998 42.80000000000001 46.29999999999998 42.80000000000001 C 47.499999999999986 41.10000000000001 48.19999999999998 39.40000000000001 48.399999999999984 38.90000000000001 C 48.899999999999984 38.600000000000016 50.59999999999999 37.20000000000001 50.69999999999998 35.000000000000014 C 50.79999999999998 33.000000000000014 50.09999999999998 32.500000000000014 49.49999999999998 32.500000000000014 C 49.59999999999998 31.100000000000016 50.19999999999998 21.000000000000014 39.99999999999998 20.800000000000015 C 29.79999999999998 21.000000000000014 30.399999999999977 31.100000000000016 30.49999999999998 32.500000000000014 C 29.899999999999977 32.500000000000014 29.199999999999978 33.000000000000014 29.29999999999998 35.000000000000014 C 29.39999999999998 37.30000000000001 31.09999999999998 38.600000000000016 31.59999999999998 38.90000000000001 C 31.79999999999998 39.40000000000001 32.59999999999998 41.100000000000016 33.69999999999998 42.80000000000001 C 33.69999999999998 42.80000000000001 33.69999999999998 45.20000000000001 33.69999999999998 47.10000000000001 C 33.69999999999998 49.00000000000001 29.499999999999982 50.80000000000001 29.499999999999982 50.80000000000001 L 21 54.6 C 19.4 55.300000000000004 18.3 56.7 18 58.4 L 16.9 64 L 13.899999999999999 64 C 13.2 64 12.7 63.4 12.7 62.8 L 12.7 10.6 C 12.7 9.9 13.299999999999999 9.4 13.899999999999999 9.4 L 66 9.4 C 66.7 9.4 67.2 10 67.2 10.6 L 67.2 62.7 L 67.3 62.7 z" stroke-linecap="round" />
</g>
<g transform="matrix(2.33 0 0 2.47 408.5 -1109.5)" id="26GBPohqHTsfZR9125FsQ"  >
<path style="stroke: none; stroke-width: 1; stroke-dasharray: none; stroke-linecap: butt; stroke-dashoffset: 0; stroke-linejoin: miter; stroke-miterlimit: 4; fill: rgb(179,181,179); fill-rule: nonzero; opacity: 1;" vector-effect="non-scaling-stroke"  transform=" translate(-39.92, -39.95)" d="M 72.4 0 L 7.6 0 C 6.9 0 6.3 0.6 6.3 1.2 L 6.3 78.7 C 6.3 79.4 6.8999999999999995 79.9 7.5 79.9 L 72.3 79.9 C 73 79.9 73.5 79.30000000000001 73.5 78.7 L 73.5 1.2 C 73.7 0.6 73.1 0 72.4 0 z" stroke-linecap="round" />
</g>
<g transform="matrix(2.34 0 0 2.47 409 -1117.5)" id="RNpNlNwyaAr_6ZPaKADXs"  >
<path style="stroke: none; stroke-width: 1; stroke-dasharray: none; stroke-linecap: butt; stroke-dashoffset: 0; stroke-linejoin: miter; stroke-miterlimit: 4; fill: rgb(255,255,255); fill-rule: nonzero; opacity: 1;" vector-effect="non-scaling-stroke"  transform=" translate(-40, -36.7)" d="M 67.3 62.7 L 67.3 62.7 C 67.3 63.400000000000006 66.7 63.900000000000006 66.1 63.900000000000006 L 62.89999999999999 63.900000000000006 L 61.79999999999999 58.400000000000006 C 61.49999999999999 56.7 60.29999999999999 55.300000000000004 58.79999999999999 54.60000000000001 L 50.499999999999986 50.80000000000001 C 50.499999999999986 50.80000000000001 46.29999999999998 49.000000000000014 46.29999999999998 47.10000000000001 C 46.29999999999998 45.2 46.29999999999998 42.80000000000001 46.29999999999998 42.80000000000001 C 47.499999999999986 41.10000000000001 48.19999999999998 39.40000000000001 48.399999999999984 38.90000000000001 C 48.899999999999984 38.600000000000016 50.59999999999999 37.20000000000001 50.69999999999998 35.000000000000014 C 50.79999999999998 33.000000000000014 50.09999999999998 32.500000000000014 49.49999999999998 32.500000000000014 C 49.59999999999998 31.100000000000016 50.19999999999998 21.000000000000014 39.99999999999998 20.800000000000015 C 29.79999999999998 21.000000000000014 30.399999999999977 31.100000000000016 30.49999999999998 32.500000000000014 C 29.899999999999977 32.500000000000014 29.199999999999978 33.000000000000014 29.29999999999998 35.000000000000014 C 29.39999999999998 37.30000000000001 31.09999999999998 38.600000000000016 31.59999999999998 38.90000000000001 C 31.79999999999998 39.40000000000001 32.59999999999998 41.100000000000016 33.69999999999998 42.80000000000001 C 33.69999999999998 42.80000000000001 33.69999999999998 45.20000000000001 33.69999999999998 47.10000000000001 C 33.69999999999998 49.00000000000001 29.499999999999982 50.80000000000001 29.499999999999982 50.80000000000001 L 21 54.6 C 19.4 55.300000000000004 18.3 56.7 18 58.4 L 16.9 64 L 13.899999999999999 64 C 13.2 64 12.7 63.4 12.7 62.8 L 12.7 10.6 C 12.7 9.9 13.299999999999999 9.4 13.899999999999999 9.4 L 66 9.4 C 66.7 9.4 67.2 10 67.2 10.6 L 67.2 62.7 L 67.3 62.7 z" stroke-linecap="round" />
</g>
<g transform="matrix(2.33 0 0 2.47 418.5 -1109.5)" id="kaVCgrhTbk8LwJYzeGfZ0"  >
<path style="stroke: none; stroke-width: 1; stroke-dasharray: none; stroke-linecap: butt; stroke-dashoffset: 0; stroke-linejoin: miter; stroke-miterlimit: 4; fill: rgb(179,181,179); fill-rule: nonzero; opacity: 1;" vector-effect="non-scaling-stroke"  transform=" translate(-39.92, -39.95)" d="M 72.4 0 L 7.6 0 C 6.9 0 6.3 0.6 6.3 1.2 L 6.3 78.7 C 6.3 79.4 6.8999999999999995 79.9 7.5 79.9 L 72.3 79.9 C 73 79.9 73.5 79.30000000000001 73.5 78.7 L 73.5 1.2 C 73.7 0.6 73.1 0 72.4 0 z" stroke-linecap="round" />
</g>
<g transform="matrix(2.34 0 0 2.47 419 -1117.5)" id="4c9YcPK1SpqmcRLuNkCKv"  >
<path style="stroke: none; stroke-width: 1; stroke-dasharray: none; stroke-linecap: butt; stroke-dashoffset: 0; stroke-linejoin: miter; stroke-miterlimit: 4; fill: rgb(255,255,255); fill-rule: nonzero; opacity: 1;" vector-effect="non-scaling-stroke"  transform=" translate(-40, -36.7)" d="M 67.3 62.7 L 67.3 62.7 C 67.3 63.400000000000006 66.7 63.900000000000006 66.1 63.900000000000006 L 62.89999999999999 63.900000000000006 L 61.79999999999999 58.400000000000006 C 61.49999999999999 56.7 60.29999999999999 55.300000000000004 58.79999999999999 54.60000000000001 L 50.499999999999986 50.80000000000001 C 50.499999999999986 50.80000000000001 46.29999999999998 49.000000000000014 46.29999999999998 47.10000000000001 C 46.29999999999998 45.2 46.29999999999998 42.80000000000001 46.29999999999998 42.80000000000001 C 47.499999999999986 41.10000000000001 48.19999999999998 39.40000000000001 48.399999999999984 38.90000000000001 C 48.899999999999984 38.600000000000016 50.59999999999999 37.20000000000001 50.69999999999998 35.000000000000014 C 50.79999999999998 33.000000000000014 50.09999999999998 32.500000000000014 49.49999999999998 32.500000000000014 C 49.59999999999998 31.100000000000016 50.19999999999998 21.000000000000014 39.99999999999998 20.800000000000015 C 29.79999999999998 21.000000000000014 30.399999999999977 31.100000000000016 30.49999999999998 32.500000000000014 C 29.899999999999977 32.500000000000014 29.199999999999978 33.000000000000014 29.29999999999998 35.000000000000014 C 29.39999999999998 37.30000000000001 31.09999999999998 38.600000000000016 31.59999999999998 38.90000000000001 C 31.79999999999998 39.40000000000001 32.59999999999998 41.100000000000016 33.69999999999998 42.80000000000001 C 33.69999999999998 42.80000000000001 33.69999999999998 45.20000000000001 33.69999999999998 47.10000000000001 C 33.69999999999998 49.00000000000001 29.499999999999982 50.80000000000001 29.499999999999982 50.80000000000001 L 21 54.6 C 19.4 55.300000000000004 18.3 56.7 18 58.4 L 16.9 64 L 13.899999999999999 64 C 13.2 64 12.7 63.4 12.7 62.8 L 12.7 10.6 C 12.7 9.9 13.299999999999999 9.4 13.899999999999999 9.4 L 66 9.4 C 66.7 9.4 67.2 10 67.2 10.6 L 67.2 62.7 L 67.3 62.7 z" stroke-linecap="round" />
</g>
<g transform="matrix(2.33 0 0 2.47 438.5 -1106.5)" id="piobrVFtVzqv4mjSpkBNG"  >
<path style="stroke: none; stroke-width: 1; stroke-dasharray: none; stroke-linecap: butt; stroke-dashoffset: 0; stroke-linejoin: miter; stroke-miterlimit: 4; fill: rgb(179,181,179); fill-rule: nonzero; opacity: 1;" vector-effect="non-scaling-stroke"  transform=" translate(-39.92, -39.95)" d="M 72.4 0 L 7.6 0 C 6.9 0 6.3 0.6 6.3 1.2 L 6.3 78.7 C 6.3 79.4 6.8999999999999995 79.9 7.5 79.9 L 72.3 79.9 C 73 79.9 73.5 79.30000000000001 73.5 78.7 L 73.5 1.2 C 73.7 0.6 73.1 0 72.4 0 z" stroke-linecap="round" />
</g>
<g transform="matrix(2.34 0 0 2.47 439 -1114.5)" id="2vDNYqfJVwSfTJKwf6N9u"  >
<path style="stroke: none; stroke-width: 1; stroke-dasharray: none; stroke-linecap: butt; stroke-dashoffset: 0; stroke-linejoin: miter; stroke-miterlimit: 4; fill: rgb(255,255,255); fill-rule: nonzero; opacity: 1;" vector-effect="non-scaling-stroke"  transform=" translate(-40, -36.7)" d="M 67.3 62.7 L 67.3 62.7 C 67.3 63.400000000000006 66.7 63.900000000000006 66.1 63.900000000000006 L 62.89999999999999 63.900000000000006 L 61.79999999999999 58.400000000000006 C 61.49999999999999 56.7 60.29999999999999 55.300000000000004 58.79999999999999 54.60000000000001 L 50.499999999999986 50.80000000000001 C 50.499999999999986 50.80000000000001 46.29999999999998 49.000000000000014 46.29999999999998 47.10000000000001 C 46.29999999999998 45.2 46.29999999999998 42.80000000000001 46.29999999999998 42.80000000000001 C 47.499999999999986 41.10000000000001 48.19999999999998 39.40000000000001 48.399999999999984 38.90000000000001 C 48.899999999999984 38.600000000000016 50.59999999999999 37.20000000000001 50.69999999999998 35.000000000000014 C 50.79999999999998 33.000000000000014 50.09999999999998 32.500000000000014 49.49999999999998 32.500000000000014 C 49.59999999999998 31.100000000000016 50.19999999999998 21.000000000000014 39.99999999999998 20.800000000000015 C 29.79999999999998 21.000000000000014 30.399999999999977 31.100000000000016 30.49999999999998 32.500000000000014 C 29.899999999999977 32.500000000000014 29.199999999999978 33.000000000000014 29.29999999999998 35.000000000000014 C 29.39999999999998 37.30000000000001 31.09999999999998 38.600000000000016 31.59999999999998 38.90000000000001 C 31.79999999999998 39.40000000000001 32.59999999999998 41.100000000000016 33.69999999999998 42.80000000000001 C 33.69999999999998 42.80000000000001 33.69999999999998 45.20000000000001 33.69999999999998 47.10000000000001 C 33.69999999999998 49.00000000000001 29.499999999999982 50.80000000000001 29.499999999999982 50.80000000000001 L 21 54.6 C 19.4 55.300000000000004 18.3 56.7 18 58.4 L 16.9 64 L 13.899999999999999 64 C 13.2 64 12.7 63.4 12.7 62.8 L 12.7 10.6 C 12.7 9.9 13.299999999999999 9.4 13.899999999999999 9.4 L 66 9.4 C 66.7 9.4 67.2 10 67.2 10.6 L 67.2 62.7 L 67.3 62.7 z" stroke-linecap="round" />
</g>
<g transform="matrix(2.33 0 0 2.47 417.5 -1089.5)" id="VEhLqNakDy61oxZ2kLkcH"  >
<path style="stroke: none; stroke-width: 1; stroke-dasharray: none; stroke-linecap: butt; stroke-dashoffset: 0; stroke-linejoin: miter; stroke-miterlimit: 4; fill: rgb(179,181,179); fill-rule: nonzero; opacity: 1;" vector-effect="non-scaling-stroke"  transform=" translate(-39.92, -39.95)" d="M 72.4 0 L 7.6 0 C 6.9 0 6.3 0.6 6.3 1.2 L 6.3 78.7 C 6.3 79.4 6.8999999999999995 79.9 7.5 79.9 L 72.3 79.9 C 73 79.9 73.5 79.30000000000001 73.5 78.7 L 73.5 1.2 C 73.7 0.6 73.1 0 72.4 0 z" stroke-linecap="round" />
</g>
<g transform="matrix(2.34 0 0 2.47 419 -1097.5)" id="XTcguz285F39H4yFJbExI"  >
<path style="stroke: none; stroke-width: 1; stroke-dasharray: none; stroke-linecap: butt; stroke-dashoffset: 0; stroke-linejoin: miter; stroke-miterlimit: 4; fill: rgb(255,255,255); fill-rule: nonzero; opacity: 1;" vector-effect="non-scaling-stroke"  transform=" translate(-40, -36.7)" d="M 67.3 62.7 L 67.3 62.7 C 67.3 63.400000000000006 66.7 63.900000000000006 66.1 63.900000000000006 L 62.89999999999999 63.900000000000006 L 61.79999999999999 58.400000000000006 C 61.49999999999999 56.7 60.29999999999999 55.300000000000004 58.79999999999999 54.60000000000001 L 50.499999999999986 50.80000000000001 C 50.499999999999986 50.80000000000001 46.29999999999998 49.000000000000014 46.29999999999998 47.10000000000001 C 46.29999999999998 45.2 46.29999999999998 42.80000000000001 46.29999999999998 42.80000000000001 C 47.499999999999986 41.10000000000001 48.19999999999998 39.40000000000001 48.399999999999984 38.90000000000001 C 48.899999999999984 38.600000000000016 50.59999999999999 37.20000000000001 50.69999999999998 35.000000000000014 C 50.79999999999998 33.000000000000014 50.09999999999998 32.500000000000014 49.49999999999998 32.500000000000014 C 49.59999999999998 31.100000000000016 50.19999999999998 21.000000000000014 39.99999999999998 20.800000000000015 C 29.79999999999998 21.000000000000014 30.399999999999977 31.100000000000016 30.49999999999998 32.500000000000014 C 29.899999999999977 32.500000000000014 29.199999999999978 33.000000000000014 29.29999999999998 35.000000000000014 C 29.39999999999998 37.30000000000001 31.09999999999998 38.600000000000016 31.59999999999998 38.90000000000001 C 31.79999999999998 39.40000000000001 32.59999999999998 41.100000000000016 33.69999999999998 42.80000000000001 C 33.69999999999998 42.80000000000001 33.69999999999998 45.20000000000001 33.69999999999998 47.10000000000001 C 33.69999999999998 49.00000000000001 29.499999999999982 50.80000000000001 29.499999999999982 50.80000000000001 L 21 54.6 C 19.4 55.300000000000004 18.3 56.7 18 58.4 L 16.9 64 L 13.899999999999999 64 C 13.2 64 12.7 63.4 12.7 62.8 L 12.7 10.6 C 12.7 9.9 13.299999999999999 9.4 13.899999999999999 9.4 L 66 9.4 C 66.7 9.4 67.2 10 67.2 10.6 L 67.2 62.7 L 67.3 62.7 z" stroke-linecap="round" />
</g>
<g transform="matrix(2.33 0 0 2.47 434.5 -1097.5)" id="eb9iSEhOnCg63nBOLWQ0M"  >
<path style="stroke: none; stroke-width: 1; stroke-dasharray: none; stroke-linecap: butt; stroke-dashoffset: 0; stroke-linejoin: miter; stroke-miterlimit: 4; fill: rgb(179,181,179); fill-rule: nonzero; opacity: 1;" vector-effect="non-scaling-stroke"  transform=" translate(-39.92, -39.95)" d="M 72.4 0 L 7.6 0 C 6.9 0 6.3 0.6 6.3 1.2 L 6.3 78.7 C 6.3 79.4 6.8999999999999995 79.9 7.5 79.9 L 72.3 79.9 C 73 79.9 73.5 79.30000000000001 73.5 78.7 L 73.5 1.2 C 73.7 0.6 73.1 0 72.4 0 z" stroke-linecap="round" />
</g>
<g transform="matrix(2.34 0 0 2.47 435 -1105.5)" id="98moFoticl1ylwppMfwbZ"  >
<path style="stroke: none; stroke-width: 1; stroke-dasharray: none; stroke-linecap: butt; stroke-dashoffset: 0; stroke-linejoin: miter; stroke-miterlimit: 4; fill: rgb(255,255,255); fill-rule: nonzero; opacity: 1;" vector-effect="non-scaling-stroke"  transform=" translate(-40, -36.7)" d="M 67.3 62.7 L 67.3 62.7 C 67.3 63.400000000000006 66.7 63.900000000000006 66.1 63.900000000000006 L 62.89999999999999 63.900000000000006 L 61.79999999999999 58.400000000000006 C 61.49999999999999 56.7 60.29999999999999 55.300000000000004 58.79999999999999 54.60000000000001 L 50.499999999999986 50.80000000000001 C 50.499999999999986 50.80000000000001 46.29999999999998 49.000000000000014 46.29999999999998 47.10000000000001 C 46.29999999999998 45.2 46.29999999999998 42.80000000000001 46.29999999999998 42.80000000000001 C 47.499999999999986 41.10000000000001 48.19999999999998 39.40000000000001 48.399999999999984 38.90000000000001 C 48.899999999999984 38.600000000000016 50.59999999999999 37.20000000000001 50.69999999999998 35.000000000000014 C 50.79999999999998 33.000000000000014 50.09999999999998 32.500000000000014 49.49999999999998 32.500000000000014 C 49.59999999999998 31.100000000000016 50.19999999999998 21.000000000000014 39.99999999999998 20.800000000000015 C 29.79999999999998 21.000000000000014 30.399999999999977 31.100000000000016 30.49999999999998 32.500000000000014 C 29.899999999999977 32.500000000000014 29.199999999999978 33.000000000000014 29.29999999999998 35.000000000000014 C 29.39999999999998 37.30000000000001 31.09999999999998 38.600000000000016 31.59999999999998 38.90000000000001 C 31.79999999999998 39.40000000000001 32.59999999999998 41.100000000000016 33.69999999999998 42.80000000000001 C 33.69999999999998 42.80000000000001 33.69999999999998 45.20000000000001 33.69999999999998 47.10000000000001 C 33.69999999999998 49.00000000000001 29.499999999999982 50.80000000000001 29.499999999999982 50.80000000000001 L 21 54.6 C 19.4 55.300000000000004 18.3 56.7 18 58.4 L 16.9 64 L 13.899999999999999 64 C 13.2 64 12.7 63.4 12.7 62.8 L 12.7 10.6 C 12.7 9.9 13.299999999999999 9.4 13.899999999999999 9.4 L 66 9.4 C 66.7 9.4 67.2 10 67.2 10.6 L 67.2 62.7 L 67.3 62.7 z" stroke-linecap="round" />
</g>
<g transform="matrix(2.33 0 0 2.47 413.5 -1051.5)" id="vZIpXQhb53t5cfcgV0oI4"  >
<path style="stroke: none; stroke-width: 1; stroke-dasharray: none; stroke-linecap: butt; stroke-dashoffset: 0; stroke-linejoin: miter; stroke-miterlimit: 4; fill: rgb(179,181,179); fill-rule: nonzero; opacity: 1;" vector-effect="non-scaling-stroke"  transform=" translate(-39.92, -39.95)" d="M 72.4 0 L 7.6 0 C 6.9 0 6.3 0.6 6.3 1.2 L 6.3 78.7 C 6.3 79.4 6.8999999999999995 79.9 7.5 79.9 L 72.3 79.9 C 73 79.9 73.5 79.30000000000001 73.5 78.7 L 73.5 1.2 C 73.7 0.6 73.1 0 72.4 0 z" stroke-linecap="round" />
</g>
<g transform="matrix(2.34 0 0 2.47 414 -1059.5)" id="3w_AqtijUnZFGlCIRojqk"  >
<path style="stroke: none; stroke-width: 1; stroke-dasharray: none; stroke-linecap: butt; stroke-dashoffset: 0; stroke-linejoin: miter; stroke-miterlimit: 4; fill: rgb(255,255,255); fill-rule: nonzero; opacity: 1;" vector-effect="non-scaling-stroke"  transform=" translate(-40, -36.7)" d="M 67.3 62.7 L 67.3 62.7 C 67.3 63.400000000000006 66.7 63.900000000000006 66.1 63.900000000000006 L 62.89999999999999 63.900000000000006 L 61.79999999999999 58.400000000000006 C 61.49999999999999 56.7 60.29999999999999 55.300000000000004 58.79999999999999 54.60000000000001 L 50.499999999999986 50.80000000000001 C 50.499999999999986 50.80000000000001 46.29999999999998 49.000000000000014 46.29999999999998 47.10000000000001 C 46.29999999999998 45.2 46.29999999999998 42.80000000000001 46.29999999999998 42.80000000000001 C 47.499999999999986 41.10000000000001 48.19999999999998 39.40000000000001 48.399999999999984 38.90000000000001 C 48.899999999999984 38.600000000000016 50.59999999999999 37.20000000000001 50.69999999999998 35.000000000000014 C 50.79999999999998 33.000000000000014 50.09999999999998 32.500000000000014 49.49999999999998 32.500000000000014 C 49.59999999999998 31.100000000000016 50.19999999999998 21.000000000000014 39.99999999999998 20.800000000000015 C 29.79999999999998 21.000000000000014 30.399999999999977 31.100000000000016 30.49999999999998 32.500000000000014 C 29.899999999999977 32.500000000000014 29.199999999999978 33.000000000000014 29.29999999999998 35.000000000000014 C 29.39999999999998 37.30000000000001 31.09999999999998 38.600000000000016 31.59999999999998 38.90000000000001 C 31.79999999999998 39.40000000000001 32.59999999999998 41.100000000000016 33.69999999999998 42.80000000000001 C 33.69999999999998 42.80000000000001 33.69999999999998 45.20000000000001 33.69999999999998 47.10000000000001 C 33.69999999999998 49.00000000000001 29.499999999999982 50.80000000000001 29.499999999999982 50.80000000000001 L 21 54.6 C 19.4 55.300000000000004 18.3 56.7 18 58.4 L 16.9 64 L 13.899999999999999 64 C 13.2 64 12.7 63.4 12.7 62.8 L 12.7 10.6 C 12.7 9.9 13.299999999999999 9.4 13.899999999999999 9.4 L 66 9.4 C 66.7 9.4 67.2 10 67.2 10.6 L 67.2 62.7 L 67.3 62.7 z" stroke-linecap="round" />
</g>
<g transform="matrix(2.33 0 0 2.47 414.5 -1097.5)" id="wNSnhRS-uvKm8vOtQ8UGi"  >
<path style="stroke: none; stroke-width: 1; stroke-dasharray: none; stroke-linecap: butt; stroke-dashoffset: 0; stroke-linejoin: miter; stroke-miterlimit: 4; fill: rgb(179,181,179); fill-rule: nonzero; opacity: 1;" vector-effect="non-scaling-stroke"  transform=" translate(-39.92, -39.95)" d="M 72.4 0 L 7.6 0 C 6.9 0 6.3 0.6 6.3 1.2 L 6.3 78.7 C 6.3 79.4 6.8999999999999995 79.9 7.5 79.9 L 72.3 79.9 C 73 79.9 73.5 79.30000000000001 73.5 78.7 L 73.5 1.2 C 73.7 0.6 73.1 0 72.4 0 z" stroke-linecap="round" />
</g>
<g transform="matrix(2.34 0 0 2.47 415 -1105.5)" id="253Delv7bYN505vzEwR5g"  >
<path style="stroke: none; stroke-width: 1; stroke-dasharray: none; stroke-linecap: butt; stroke-dashoffset: 0; stroke-linejoin: miter; stroke-miterlimit: 4; fill: rgb(255,255,255); fill-rule: nonzero; opacity: 1;" vector-effect="non-scaling-stroke"  transform=" translate(-40, -36.7)" d="M 67.3 62.7 L 67.3 62.7 C 67.3 63.400000000000006 66.7 63.900000000000006 66.1 63.900000000000006 L 62.89999999999999 63.900000000000006 L 61.79999999999999 58.400000000000006 C 61.49999999999999 56.7 60.29999999999999 55.300000000000004 58.79999999999999 54.60000000000001 L 50.499999999999986 50.80000000000001 C 50.499999999999986 50.80000000000001 46.29999999999998 49.000000000000014 46.29999999999998 47.10000000000001 C 46.29999999999998 45.2 46.29999999999998 42.80000000000001 46.29999999999998 42.80000000000001 C 47.499999999999986 41.10000000000001 48.19999999999998 39.40000000000001 48.399999999999984 38.90000000000001 C 48.899999999999984 38.600000000000016 50.59999999999999 37.20000000000001 50.69999999999998 35.000000000000014 C 50.79999999999998 33.000000000000014 50.09999999999998 32.500000000000014 49.49999999999998 32.500000000000014 C 49.59999999999998 31.100000000000016 50.19999999999998 21.000000000000014 39.99999999999998 20.800000000000015 C 29.79999999999998 21.000000000000014 30.399999999999977 31.100000000000016 30.49999999999998 32.500000000000014 C 29.899999999999977 32.500000000000014 29.199999999999978 33.000000000000014 29.29999999999998 35.000000000000014 C 29.39999999999998 37.30000000000001 31.09999999999998 38.600000000000016 31.59999999999998 38.90000000000001 C 31.79999999999998 39.40000000000001 32.59999999999998 41.100000000000016 33.69999999999998 42.80000000000001 C 33.69999999999998 42.80000000000001 33.69999999999998 45.20000000000001 33.69999999999998 47.10000000000001 C 33.69999999999998 49.00000000000001 29.499999999999982 50.80000000000001 29.499999999999982 50.80000000000001 L 21 54.6 C 19.4 55.300000000000004 18.3 56.7 18 58.4 L 16.9 64 L 13.899999999999999 64 C 13.2 64 12.7 63.4 12.7 62.8 L 12.7 10.6 C 12.7 9.9 13.299999999999999 9.4 13.899999999999999 9.4 L 66 9.4 C 66.7 9.4 67.2 10 67.2 10.6 L 67.2 62.7 L 67.3 62.7 z" stroke-linecap="round" />
</g>
<g transform="matrix(2.34 0 0 2.47 198.71 -1129.49)" id="sHRAxfuSeKLXtnp-2A3qz"  >
<path style="stroke: none; stroke-width: 1; stroke-dasharray: none; stroke-linecap: butt; stroke-dashoffset: 0; stroke-linejoin: miter; stroke-miterlimit: 4; fill: rgb(179,181,179); fill-rule: nonzero; opacity: 1;" vector-effect="non-scaling-stroke"  transform=" translate(-39.92, -39.95)" d="M 72.4 0 L 7.6 0 C 6.9 0 6.3 0.6 6.3 1.2 L 6.3 78.7 C 6.3 79.4 6.8999999999999995 79.9 7.5 79.9 L 72.3 79.9 C 73 79.9 73.5 79.30000000000001 73.5 78.7 L 73.5 1.2 C 73.7 0.6 73.1 0 72.4 0 z" stroke-linecap="round" />
</g>
<g transform="matrix(2.34 0 0 2.47 198.9 -1137.52)" id="iDnPc_TZSFtQUUeKFRw2V"  >
<path style="stroke: none; stroke-width: 1; stroke-dasharray: none; stroke-linecap: butt; stroke-dashoffset: 0; stroke-linejoin: miter; stroke-miterlimit: 4; fill: rgb(255,255,255); fill-rule: nonzero; opacity: 1;" vector-effect="non-scaling-stroke"  transform=" translate(-40, -36.7)" d="M 67.3 62.7 L 67.3 62.7 C 67.3 63.400000000000006 66.7 63.900000000000006 66.1 63.900000000000006 L 62.89999999999999 63.900000000000006 L 61.79999999999999 58.400000000000006 C 61.49999999999999 56.7 60.29999999999999 55.300000000000004 58.79999999999999 54.60000000000001 L 50.499999999999986 50.80000000000001 C 50.499999999999986 50.80000000000001 46.29999999999998 49.000000000000014 46.29999999999998 47.10000000000001 C 46.29999999999998 45.2 46.29999999999998 42.80000000000001 46.29999999999998 42.80000000000001 C 47.499999999999986 41.10000000000001 48.19999999999998 39.40000000000001 48.399999999999984 38.90000000000001 C 48.899999999999984 38.600000000000016 50.59999999999999 37.20000000000001 50.69999999999998 35.000000000000014 C 50.79999999999998 33.000000000000014 50.09999999999998 32.500000000000014 49.49999999999998 32.500000000000014 C 49.59999999999998 31.100000000000016 50.19999999999998 21.000000000000014 39.99999999999998 20.800000000000015 C 29.79999999999998 21.000000000000014 30.399999999999977 31.100000000000016 30.49999999999998 32.500000000000014 C 29.899999999999977 32.500000000000014 29.199999999999978 33.000000000000014 29.29999999999998 35.000000000000014 C 29.39999999999998 37.30000000000001 31.09999999999998 38.600000000000016 31.59999999999998 38.90000000000001 C 31.79999999999998 39.40000000000001 32.59999999999998 41.100000000000016 33.69999999999998 42.80000000000001 C 33.69999999999998 42.80000000000001 33.69999999999998 45.20000000000001 33.69999999999998 47.10000000000001 C 33.69999999999998 49.00000000000001 29.499999999999982 50.80000000000001 29.499999999999982 50.80000000000001 L 21 54.6 C 19.4 55.300000000000004 18.3 56.7 18 58.4 L 16.9 64 L 13.899999999999999 64 C 13.2 64 12.7 63.4 12.7 62.8 L 12.7 10.6 C 12.7 9.9 13.299999999999999 9.4 13.899999999999999 9.4 L 66 9.4 C 66.7 9.4 67.2 10 67.2 10.6 L 67.2 62.7 L 67.3 62.7 z" stroke-linecap="round" />
</g>
<g transform="matrix(2.34 0 0 2.47 198.71 -1129.49)" id="9dwK8ATrzDEH7IGOut3St"  >
<path style="stroke: none; stroke-width: 1; stroke-dasharray: none; stroke-linecap: butt; stroke-dashoffset: 0; stroke-linejoin: miter; stroke-miterlimit: 4; fill: rgb(179,181,179); fill-rule: nonzero; opacity: 1;" vector-effect="non-scaling-stroke"  transform=" translate(-39.92, -39.95)" d="M 72.4 0 L 7.6 0 C 6.9 0 6.3 0.6 6.3 1.2 L 6.3 78.7 C 6.3 79.4 6.8999999999999995 79.9 7.5 79.9 L 72.3 79.9 C 73 79.9 73.5 79.30000000000001 73.5 78.7 L 73.5 1.2 C 73.7 0.6 73.1 0 72.4 0 z" stroke-linecap="round" />
</g>
<g transform="matrix(2.34 0 0 2.47 198.9 -1137.52)" id="A8KWGcRSz7I7PGLW8Wk0U"  >
<path style="stroke: none; stroke-width: 1; stroke-dasharray: none; stroke-linecap: butt; stroke-dashoffset: 0; stroke-linejoin: miter; stroke-miterlimit: 4; fill: rgb(255,255,255); fill-rule: nonzero; opacity: 1;" vector-effect="non-scaling-stroke"  transform=" translate(-40, -36.7)" d="M 67.3 62.7 L 67.3 62.7 C 67.3 63.400000000000006 66.7 63.900000000000006 66.1 63.900000000000006 L 62.89999999999999 63.900000000000006 L 61.79999999999999 58.400000000000006 C 61.49999999999999 56.7 60.29999999999999 55.300000000000004 58.79999999999999 54.60000000000001 L 50.499999999999986 50.80000000000001 C 50.499999999999986 50.80000000000001 46.29999999999998 49.000000000000014 46.29999999999998 47.10000000000001 C 46.29999999999998 45.2 46.29999999999998 42.80000000000001 46.29999999999998 42.80000000000001 C 47.499999999999986 41.10000000000001 48.19999999999998 39.40000000000001 48.399999999999984 38.90000000000001 C 48.899999999999984 38.600000000000016 50.59999999999999 37.20000000000001 50.69999999999998 35.000000000000014 C 50.79999999999998 33.000000000000014 50.09999999999998 32.500000000000014 49.49999999999998 32.500000000000014 C 49.59999999999998 31.100000000000016 50.19999999999998 21.000000000000014 39.99999999999998 20.800000000000015 C 29.79999999999998 21.000000000000014 30.399999999999977 31.100000000000016 30.49999999999998 32.500000000000014 C 29.899999999999977 32.500000000000014 29.199999999999978 33.000000000000014 29.29999999999998 35.000000000000014 C 29.39999999999998 37.30000000000001 31.09999999999998 38.600000000000016 31.59999999999998 38.90000000000001 C 31.79999999999998 39.40000000000001 32.59999999999998 41.100000000000016 33.69999999999998 42.80000000000001 C 33.69999999999998 42.80000000000001 33.69999999999998 45.20000000000001 33.69999999999998 47.10000000000001 C 33.69999999999998 49.00000000000001 29.499999999999982 50.80000000000001 29.499999999999982 50.80000000000001 L 21 54.6 C 19.4 55.300000000000004 18.3 56.7 18 58.4 L 16.9 64 L 13.899999999999999 64 C 13.2 64 12.7 63.4 12.7 62.8 L 12.7 10.6 C 12.7 9.9 13.299999999999999 9.4 13.899999999999999 9.4 L 66 9.4 C 66.7 9.4 67.2 10 67.2 10.6 L 67.2 62.7 L 67.3 62.7 z" stroke-linecap="round" />
</g>
<g transform="matrix(2.34 0 0 2.47 198.71 -1129.49)" id="BWIZfB4Yb9PpXx0MD-l4_"  >
<path style="stroke: none; stroke-width: 1; stroke-dasharray: none; stroke-linecap: butt; stroke-dashoffset: 0; stroke-linejoin: miter; stroke-miterlimit: 4; fill: rgb(179,181,179); fill-rule: nonzero; opacity: 1;" vector-effect="non-scaling-stroke"  transform=" translate(-39.92, -39.95)" d="M 72.4 0 L 7.6 0 C 6.9 0 6.3 0.6 6.3 1.2 L 6.3 78.7 C 6.3 79.4 6.8999999999999995 79.9 7.5 79.9 L 72.3 79.9 C 73 79.9 73.5 79.30000000000001 73.5 78.7 L 73.5 1.2 C 73.7 0.6 73.1 0 72.4 0 z" stroke-linecap="round" />
</g>
<g transform="matrix(2.34 0 0 2.47 198.9 -1137.52)" id="Dn8J5IRgoFoSDx5k6Ie_7"  >
<path style="stroke: none; stroke-width: 1; stroke-dasharray: none; stroke-linecap: butt; stroke-dashoffset: 0; stroke-linejoin: miter; stroke-miterlimit: 4; fill: rgb(255,255,255); fill-rule: nonzero; opacity: 1;" vector-effect="non-scaling-stroke"  transform=" translate(-40, -36.7)" d="M 67.3 62.7 L 67.3 62.7 C 67.3 63.400000000000006 66.7 63.900000000000006 66.1 63.900000000000006 L 62.89999999999999 63.900000000000006 L 61.79999999999999 58.400000000000006 C 61.49999999999999 56.7 60.29999999999999 55.300000000000004 58.79999999999999 54.60000000000001 L 50.499999999999986 50.80000000000001 C 50.499999999999986 50.80000000000001 46.29999999999998 49.000000000000014 46.29999999999998 47.10000000000001 C 46.29999999999998 45.2 46.29999999999998 42.80000000000001 46.29999999999998 42.80000000000001 C 47.499999999999986 41.10000000000001 48.19999999999998 39.40000000000001 48.399999999999984 38.90000000000001 C 48.899999999999984 38.600000000000016 50.59999999999999 37.20000000000001 50.69999999999998 35.000000000000014 C 50.79999999999998 33.000000000000014 50.09999999999998 32.500000000000014 49.49999999999998 32.500000000000014 C 49.59999999999998 31.100000000000016 50.19999999999998 21.000000000000014 39.99999999999998 20.800000000000015 C 29.79999999999998 21.000000000000014 30.399999999999977 31.100000000000016 30.49999999999998 32.500000000000014 C 29.899999999999977 32.500000000000014 29.199999999999978 33.000000000000014 29.29999999999998 35.000000000000014 C 29.39999999999998 37.30000000000001 31.09999999999998 38.600000000000016 31.59999999999998 38.90000000000001 C 31.79999999999998 39.40000000000001 32.59999999999998 41.100000000000016 33.69999999999998 42.80000000000001 C 33.69999999999998 42.80000000000001 33.69999999999998 45.20000000000001 33.69999999999998 47.10000000000001 C 33.69999999999998 49.00000000000001 29.499999999999982 50.80000000000001 29.499999999999982 50.80000000000001 L 21 54.6 C 19.4 55.300000000000004 18.3 56.7 18 58.4 L 16.9 64 L 13.899999999999999 64 C 13.2 64 12.7 63.4 12.7 62.8 L 12.7 10.6 C 12.7 9.9 13.299999999999999 9.4 13.899999999999999 9.4 L 66 9.4 C 66.7 9.4 67.2 10 67.2 10.6 L 67.2 62.7 L 67.3 62.7 z" stroke-linecap="round" />
</g>
</svg>